<svg width="110" height="110" viewBox="0 0 110 110" fill="none" xmlns="http://www.w3.org/2000/svg">
<g clip-path="url(#clip0_12_604)">
<path d="M100.32 103.18H53.0091C52.8881 103.18 52.7891 103.081 52.7891 102.96C52.7891 102.839 52.8881 102.74 53.0091 102.74H100.32C100.441 102.74 100.54 102.839 100.54 102.96C100.54 103.081 100.441 103.18 100.32 103.18Z" fill="#1D1D1B"/>
<path d="M100.43 103.081C100.309 103.081 100.21 102.982 100.21 102.861V52.8991C100.21 52.7781 100.309 52.6791 100.43 52.6791C100.551 52.6791 100.65 52.7781 100.65 52.8991V102.872C100.65 102.982 100.551 103.081 100.43 103.081Z" fill="#1D1D1B"/>
<path d="M59.114 105.93H49.39C49.269 105.93 49.17 105.831 49.17 105.71C49.17 105.589 49.269 105.49 49.39 105.49H59.114C59.235 105.49 59.334 105.589 59.334 105.71C59.334 105.831 59.235 105.93 59.114 105.93Z" fill="#1D1D1B"/>
<path d="M95.722 55.1322C95.601 55.1322 95.502 55.0332 95.502 54.9122V45.1882C95.502 45.0672 95.601 44.9682 95.722 44.9682C95.8431 44.9682 95.9421 45.0672 95.9421 45.1882V54.9122C95.9421 55.0332 95.8431 55.1322 95.722 55.1322Z" fill="#1D1D1B"/>
<path d="M100.309 102.828C101.464 96.1073 96.162 79.2663 91.597 77.0883C87.032 74.9103 84.689 77.6713 84.689 77.6713L81.62 75.3613L71.478 84.0843L73.161 86.0533C73.161 86.0533 70.686 90.6513 74.129 93.8303C77.572 97.0093 81.488 102.124 84.117 102.806" fill="#426C89"/>
<path d="M84.073 102.971C82.236 102.498 79.882 100.001 77.385 97.3723C76.263 96.1953 75.108 94.9743 74.019 93.9623C70.807 90.9923 72.633 86.7903 72.974 86.0863L71.258 84.0733L71.379 83.9633L81.62 75.1523L84.678 77.4513C85.195 76.9453 87.582 74.9873 91.663 76.9343C93.808 77.9573 96.261 82.1703 98.252 88.1983C100.144 93.9403 101.013 99.6933 100.474 102.85L100.144 102.795C100.672 99.6823 99.814 93.9953 97.944 88.2973C96.019 82.4343 93.555 78.1993 91.531 77.2313C87.142 75.1303 84.92 77.6713 84.821 77.7813L84.722 77.9023L84.601 77.8143L81.642 75.5703L71.72 84.1063L73.37 86.0423L73.315 86.1413C73.293 86.1853 70.939 90.6623 74.25 93.7203C75.35 94.7323 76.505 95.9643 77.627 97.1523C79.981 99.6383 82.412 102.212 84.161 102.663L84.073 102.971Z" fill="#1D1D1B"/>
<path d="M73.568 85.9654C73.568 85.9654 79.86 87.9344 84.832 77.8804L81.752 75.6804L72.028 83.9964L73.568 85.9654Z" fill="#6EAFDC"/>
<path d="M81.686 100.397C82.33 100.397 82.852 99.8754 82.852 99.2314C82.852 98.5875 82.33 98.0654 81.686 98.0654C81.0421 98.0654 80.52 98.5875 80.52 99.2314C80.52 99.8754 81.0421 100.397 81.686 100.397Z" fill="#426C89"/>
<path d="M81.301 88.6052C81.945 88.6052 82.467 88.0831 82.467 87.4392C82.467 86.7952 81.945 86.2732 81.301 86.2732C80.6571 86.2732 80.135 86.7952 80.135 87.4392C80.135 88.0831 80.6571 88.6052 81.301 88.6052Z" fill="#426C89"/>
<path d="M93.1149 84.1724C93.7589 84.1724 94.2809 83.6504 94.2809 83.0064C94.2809 82.3625 93.7589 81.8404 93.1149 81.8404C92.471 81.8404 91.9489 82.3625 91.9489 83.0064C91.9489 83.6504 92.471 84.1724 93.1149 84.1724Z" fill="#426C89"/>
<path d="M94.1049 99.2861C94.7489 99.2861 95.2709 98.7641 95.2709 98.1201C95.2709 97.4761 94.7489 96.9541 94.1049 96.9541C93.4609 96.9541 92.9389 97.4761 92.9389 98.1201C92.9389 98.7641 93.4609 99.2861 94.1049 99.2861Z" fill="#426C89"/>
<path d="M89.0229 91.1461C89.6668 91.1461 90.1889 90.6241 90.1889 89.9801C90.1889 89.3361 89.6668 88.8141 89.0229 88.8141C88.3789 88.8141 87.8569 89.3361 87.8569 89.9801C87.8569 90.6241 88.3789 91.1461 89.0229 91.1461Z" fill="#426C89"/>
<path d="M64.735 68.42C64.735 68.42 62.612 72.413 66.132 76.956C69.652 81.499 72.864 86.064 72.864 86.064L79.002 79.662L64.735 68.42Z" fill="#FFCDB2"/>
<path d="M72.8529 86.3283L72.7429 86.1633C72.7099 86.1193 69.4979 81.5543 66.0219 77.0553C62.4799 72.4793 64.5809 68.3873 64.6029 68.3433L64.6909 68.1673L79.2549 79.6403L72.8529 86.3283ZM64.8009 68.6843C64.4489 69.5093 63.2829 72.9963 66.2639 76.8573C69.3769 80.8723 72.2809 84.9533 72.8859 85.8113L78.7599 79.6843L64.8009 68.6843Z" fill="#1D1D1B"/>
<path d="M61.82 72.6C59.07 73.26 59.07 75.9 60.17 77.33C61.27 78.76 65.34 81.07 66.66 80.3C67.98 79.53 62.04 72.6 62.04 72.6" fill="#FFCDB2"/>
<path d="M65.978 80.619C64.174 80.619 60.973 78.661 60.038 77.429C59.345 76.527 59.125 75.306 59.477 74.316C59.708 73.656 60.302 72.798 61.776 72.435L61.853 72.754C60.797 73.007 60.082 73.579 59.785 74.426C59.477 75.306 59.675 76.428 60.291 77.231C61.248 78.474 64.383 80.289 65.967 80.289C66.176 80.3 66.385 80.256 66.572 80.157C66.627 80.124 66.671 80.058 66.671 79.992C66.869 78.815 63.294 74.338 61.908 72.71L62.161 72.49C62.689 73.095 67.265 78.496 67.001 80.047C66.979 80.212 66.88 80.355 66.737 80.443C66.506 80.564 66.242 80.619 65.978 80.619Z" fill="#1C1818"/>
<path d="M54.3951 59.301C56.3751 57.706 59.2681 58.0251 60.8521 60.0051L77.0771 80.1791C78.6721 82.1591 78.3531 85.0521 76.3731 86.6361C74.3931 88.2311 71.5001 87.9121 69.9161 85.9321L53.6911 65.7581C52.0961 63.7891 52.4151 60.8961 54.3951 59.301Z" fill="#EA6C56"/>
<path d="M73.5131 87.813C72.0721 87.813 70.7081 87.164 69.7951 86.042L53.5701 65.868C51.9201 63.822 52.2501 60.819 54.2961 59.169C56.3421 57.519 59.3451 57.849 60.9951 59.895L77.2201 80.069C78.8701 82.115 78.5511 85.107 76.5051 86.757C75.6471 87.439 74.5911 87.813 73.5131 87.813ZM57.2661 58.454C54.8241 58.454 52.8331 60.434 52.8331 62.887C52.8331 63.899 53.1741 64.878 53.8121 65.67L70.0481 85.844C71.5771 87.747 74.3711 88.055 76.2741 86.515C78.1771 84.975 78.4851 82.192 76.9451 80.289L60.7201 60.104C59.8841 59.059 58.6081 58.443 57.2661 58.454Z" fill="#6EAFDC"/>
<path d="M55.0549 64.933L59.8289 61.094C61.3029 59.906 63.4699 60.137 64.6579 61.622L67.2429 64.834C68.4309 66.308 68.1999 68.475 66.7149 69.663L61.9409 73.502C60.4669 74.69 58.2999 74.459 57.1119 72.974L54.5269 69.762C53.3499 68.288 53.5809 66.132 55.0549 64.933Z" fill="#EA6C56"/>
<path d="M59.8071 74.4259C58.7181 74.4259 57.6841 73.9309 57.0021 73.0839L54.4171 69.8609C53.1741 68.3099 53.4161 66.0439 54.9671 64.8009L59.7411 60.9619C61.2921 59.7189 63.5581 59.9609 64.8011 61.5119L67.3861 64.7349C68.6291 66.2859 68.3871 68.5519 66.8361 69.7949L62.0731 73.6339C61.4131 74.1509 60.6211 74.4259 59.8071 74.4259ZM61.9741 60.4999C61.2261 60.4999 60.5111 60.7529 59.9281 61.2149L55.1541 65.0539C53.7461 66.1869 53.5261 68.2439 54.6591 69.6519L57.2441 72.8749C58.3771 74.2829 60.4341 74.5029 61.8421 73.3699L66.6051 69.5309C68.0131 68.3979 68.2331 66.3409 67.1001 64.9329L64.5151 61.7099C63.9101 60.9509 62.9641 60.4999 61.9741 60.4999Z" fill="#6EAFDC"/>
<path d="M45.782 69.234C57.5799 69.234 67.144 59.6699 67.144 47.872C67.144 36.0741 57.5799 26.51 45.782 26.51C33.9841 26.51 24.42 36.0741 24.42 47.872C24.42 59.6699 33.9841 69.234 45.782 69.234Z" fill="#F8F8F8"/>
<path d="M45.782 69.3881C33.913 69.3881 24.255 59.7301 24.255 47.8611C24.255 35.9921 33.913 26.3341 45.782 26.3341C57.651 26.3341 67.309 35.9921 67.309 47.8611C67.309 59.7301 57.64 69.3881 45.782 69.3881ZM45.782 26.6751C34.1 26.6751 24.585 36.1791 24.585 47.8721C24.585 59.5651 34.089 69.0691 45.782 69.0691C57.475 69.0691 66.979 59.5651 66.979 47.8721C66.979 36.1791 57.464 26.6751 45.782 26.6751Z" fill="#1C1818"/>
<path d="M45.7819 61.6329C53.3819 61.6329 59.5429 55.4719 59.5429 47.8719C59.5429 40.2719 53.3819 34.1109 45.7819 34.1109C38.1819 34.1109 32.0209 40.2719 32.0209 47.8719C32.0209 55.4719 38.1819 61.6329 45.7819 61.6329Z" fill="#EA6C56"/>
<path d="M45.7821 61.7869C38.0931 61.7869 31.8671 55.5499 31.8671 47.8609C31.8671 40.1719 38.104 33.9459 45.793 33.9459C53.482 33.9459 59.7081 40.1829 59.7081 47.8609C59.6861 55.5499 53.4601 61.7759 45.7821 61.7869ZM45.7821 34.2759C38.2801 34.2759 32.1971 40.3589 32.1971 47.8719C32.1971 55.3849 38.2801 61.4679 45.7821 61.4679C53.2841 61.4679 59.3781 55.3849 59.3781 47.8719C59.3561 40.3699 53.2841 34.2869 45.7821 34.2759Z" fill="#1D1D1B"/>
<path d="M44.5489 37.5471L43.1177 57.1291L43.4468 57.1531L44.878 37.5712L44.5489 37.5471Z" fill="#6EAFDC"/>
<path d="M47.5208 45.569L46.7517 51.5142L47.0789 51.5566L47.8481 45.6114L47.5208 45.569Z" fill="#6EAFDC"/>
<path d="M65.1749 47.0799C64.8669 47.0799 64.6139 46.8599 64.5809 46.5519C63.7889 40.6339 61.0939 35.9919 56.5949 32.7799C53.2179 30.3599 50.0279 29.6999 49.9949 29.6889C49.6649 29.6339 49.4449 29.3149 49.5109 28.9849C49.5659 28.6549 49.8849 28.4349 50.2149 28.5009C50.2259 28.5009 50.2259 28.5009 50.2369 28.5009C50.3799 28.5339 53.6799 29.2159 57.2549 31.7679C60.5659 34.1219 64.7349 38.5659 65.7799 46.3979C65.8239 46.7279 65.5929 47.0359 65.2629 47.0799C65.2299 47.0799 65.1969 47.0799 65.1749 47.0799Z" fill="#DFDFDF"/>
<path d="M36.465 65.23C36.377 65.23 36.278 65.208 36.201 65.164C31.669 62.931 29.128 59.125 27.797 56.331C26.356 53.317 25.982 50.842 25.971 50.743C25.927 50.413 26.169 50.116 26.499 50.072C26.818 50.039 27.115 50.248 27.17 50.567C27.17 50.589 27.544 52.987 28.908 55.847C30.162 58.454 32.538 62.007 36.74 64.086C37.037 64.229 37.158 64.592 37.015 64.9C36.905 65.098 36.696 65.23 36.465 65.23Z" fill="#DFDFDF"/>
<path d="M2.71201e-05 37.07C-0.0769729 37.07 -0.142973 37.037 -0.175973 36.971C-0.241973 36.872 -0.219973 36.74 -0.120973 36.663C-0.0879729 36.641 3.67403 34.122 10.637 32.153C17.061 30.338 27.599 28.633 41.393 30.8C41.514 30.822 41.602 30.932 41.58 31.053C41.558 31.174 41.448 31.262 41.327 31.24C27.632 29.084 17.149 30.767 10.78 32.571C3.87203 34.518 0.165027 37.004 0.121027 37.026C0.0880271 37.059 0.0440271 37.07 2.71201e-05 37.07Z" fill="#1D1D1B"/>
<path d="M15.51 39.7101C15.389 39.7101 15.29 39.6111 15.29 39.4901C15.29 39.4241 15.323 39.3581 15.378 39.3141C17.127 38.1151 19.008 37.1251 20.977 36.3441C24.046 35.1231 28.666 33.9461 33.275 35.2111C33.396 35.2441 33.462 35.3651 33.429 35.4861C33.396 35.6071 33.275 35.6731 33.154 35.6401C28.666 34.4081 24.145 35.5631 21.142 36.7621C19.206 37.5211 17.358 38.5001 15.631 39.6771C15.598 39.6991 15.554 39.7101 15.51 39.7101Z" fill="#1D1D1B"/>
<path d="M72.38 52.5801C72.358 52.5801 72.336 52.5801 72.314 52.5691C72.193 52.5361 72.138 52.4041 72.171 52.2941C74.481 44.9241 73.293 39.5781 71.896 36.3991C70.378 32.9451 68.299 31.2071 68.277 31.1961C68.178 31.1191 68.167 30.9761 68.244 30.8881C68.321 30.7891 68.464 30.7781 68.552 30.8551C68.64 30.9321 70.73 32.6591 72.281 36.2011C73.711 39.4571 74.932 44.9241 72.578 52.4261C72.556 52.5141 72.479 52.5801 72.38 52.5801Z" fill="#1D1D1B"/>
<path d="M42.1079 73.2269C35.5409 73.2269 31.1299 70.5759 28.5229 68.2329C25.4319 65.4499 24.1669 62.5899 24.1119 62.4689C24.0679 62.3589 24.1229 62.2269 24.2439 62.1829C24.3539 62.1389 24.4639 62.1939 24.5189 62.2929C24.5299 62.3259 25.8059 65.2079 28.8419 67.9249C31.6359 70.4219 36.5309 73.2819 43.9999 72.7209C44.1209 72.7099 44.2309 72.7979 44.2309 72.9189C44.2419 73.0399 44.1539 73.1499 44.0219 73.1609C43.3619 73.1939 42.7239 73.2269 42.1079 73.2269Z" fill="#1D1D1B"/>
<path d="M78.1112 80.4432C78.1112 80.4432 82.5002 77.5062 80.3002 72.3692C78.1002 67.2322 74.4702 63.1512 70.1692 62.8322C65.8682 62.5132 63.3272 64.7352 62.4912 67.0232C61.6552 69.3112 63.0742 71.3022 66.1432 71.7752C66.1432 71.7752 65.4832 75.9882 70.9282 76.4942C70.9282 76.4942 72.3802 83.1272 76.6592 78.8042L78.1112 80.4432Z" fill="#FFCDB2"/>
<path d="M75.7791 65.5492C77.6051 67.2762 79.1561 69.6742 80.3001 72.3692C82.4891 77.5062 78.1111 80.4432 78.1111 80.4432L76.6481 78.8152C74.7561 80.7182 73.4141 80.4982 72.5121 79.6402C71.3681 78.5622 70.9171 76.4942 70.9171 76.4942C69.1571 76.3292 68.0351 75.7792 67.3201 75.1082C65.8241 73.7002 66.1321 71.7752 66.1321 71.7752C64.8671 71.5772 63.8881 71.1262 63.2281 70.5102C62.2821 69.6192 61.9851 68.3762 62.4801 67.0232C63.3161 64.7352 65.8461 62.5132 70.1581 62.8322C72.2151 62.9862 74.1181 63.9872 75.7791 65.5492ZM76.0761 65.2412C74.2391 63.5142 72.2591 62.5572 70.2021 62.4032C68.1451 62.2492 66.2751 62.6562 64.8011 63.5912C63.5581 64.3612 62.6011 65.5162 62.0951 66.8912C61.5561 68.3762 61.8641 69.8172 62.9531 70.8402C63.6241 71.4672 64.5701 71.9182 65.7031 72.1492C65.6921 72.8532 65.8351 74.2942 67.0561 75.4382C67.8921 76.2302 69.0911 76.7252 70.5981 76.9122C70.7741 77.5612 71.2801 79.0572 72.2371 79.9702C73.1171 80.7952 74.5801 81.3452 76.6481 79.4532L77.8031 80.7512C77.8141 80.7622 77.8251 80.7732 77.8251 80.7732C77.9681 80.9162 78.1991 80.9272 78.3641 80.8172C79.1891 80.2122 79.8931 79.4532 80.4101 78.5732C81.2131 77.2312 81.9171 75.0422 80.7071 72.2152C79.4861 69.3662 77.8911 66.9572 76.0871 65.2522L76.0761 65.2412Z" fill="#1C1818"/>
<path d="M66.1761 71.8851C66.0881 71.8851 66.0111 71.8081 66.0111 71.7201C66.0111 71.6981 66.0111 71.6761 66.0221 71.6541C68.0791 67.0891 72.5121 67.1331 72.5561 67.1331C72.6441 67.1331 72.7211 67.2101 72.7211 67.2981C72.7211 67.3861 72.6441 67.4631 72.5561 67.4631H72.5451C72.3141 67.4631 68.2441 67.5291 66.3301 71.7861C66.3081 71.8521 66.2421 71.8851 66.1761 71.8851Z" fill="#1D1D1B"/>
<path d="M71.0051 76.6591C70.9831 76.6591 70.9611 76.6591 70.9501 76.6481C70.8621 76.6151 70.8181 76.5161 70.8511 76.4391C70.8511 76.4391 70.8511 76.4391 70.8511 76.4281C71.8191 73.9751 75.2291 72.1712 75.3721 72.0942C75.4491 72.0502 75.5481 72.0832 75.5921 72.1602C75.6361 72.2372 75.6031 72.3362 75.5261 72.3802C75.4931 72.4022 72.0831 74.2061 71.1591 76.5491C71.1371 76.6151 71.0821 76.6591 71.0051 76.6591Z" fill="#1D1D1B"/>
<path d="M63.2061 68.3652C63.0191 68.3652 62.8761 68.2222 62.8761 68.0352C62.8761 67.9912 62.8871 67.9362 62.9091 67.8922C63.8551 65.8352 65.2191 64.4822 66.9461 63.8442C69.7071 62.8432 72.3911 64.0752 72.5011 64.1302C72.6661 64.2182 72.7211 64.4162 72.6441 64.5812C72.5671 64.7352 72.3801 64.8012 72.2261 64.7352C72.1821 64.7132 69.6631 63.5582 67.1661 64.4712C65.6151 65.0432 64.3831 66.2862 63.5141 68.1672C63.4481 68.2992 63.3271 68.3652 63.2061 68.3652Z" fill="#DFDFDF"/>
</g>
<defs>
<clipPath id="clip0_12_604">
<rect width="110" height="110" fill="white"/>
</clipPath>
</defs>
</svg>
