<svg width="233" height="193" viewBox="0 0 233 193" fill="none" xmlns="http://www.w3.org/2000/svg">
<path d="M59.9011 193.033C59.6151 193.031 59.3828 192.764 59.3849 192.439C59.387 192.114 59.6227 191.849 59.9087 191.851C109.602 191.821 137.463 191.804 187.156 191.775C187.442 191.777 187.674 192.044 187.672 192.369C187.67 192.694 187.434 192.959 187.148 192.957L59.9011 193.033Z" fill="black"/>
<path d="M38.6656 183.782L68.6983 183.453L77.1491 183.351C77.6431 183.354 77.6481 182.574 77.1541 182.571L47.1214 182.9L38.6706 183.002C38.1766 182.999 38.1716 183.779 38.6656 183.782Z" fill="black"/>
<path d="M64.257 174.533L80.504 175.053L85.0791 175.212C85.5731 175.215 85.578 174.435 85.0841 174.432L68.837 173.912L64.262 173.753C63.768 173.75 63.763 174.53 64.257 174.533Z" fill="black"/>
<path d="M96.4098 82.2541C96.7753 73.8582 101.116 69.9598 104.255 58.8516C107.394 47.7433 110.729 42.5645 114.784 38.6642C119.833 33.8083 122.094 33.9787 122.094 33.9787L124.122 29.9616L135.358 33.3352L134.724 39.0513C136.059 41.7639 139.131 45.1375 133.46 53.7336C129.391 59.9218 129.364 68.2677 123.927 80.8174C118.491 93.367 112.045 97.2 112.045 97.2" fill="#EA6C56"/>
<path d="M112.069 97.5643C111.939 97.5634 111.809 97.4846 111.732 97.3801C111.629 97.1975 111.683 96.9638 111.865 96.835C111.944 96.7835 118.287 92.8978 123.591 80.6333C126.177 74.6437 127.509 69.6601 128.707 65.2996C129.985 60.5237 130.997 56.7601 133.15 53.4977C138.086 45.989 136.235 42.5971 134.873 40.1184C134.693 39.8053 134.539 39.4923 134.385 39.2053C134.36 39.1271 134.334 39.075 134.334 38.997L134.915 33.6185L124.301 30.4308L122.431 34.163C122.352 34.2925 122.221 34.3957 122.066 34.3687C122.014 34.3684 119.777 34.3801 115.042 38.952C111.641 42.2324 108.023 46.9155 104.619 58.958C103.262 63.7335 101.706 67.1816 100.309 70.2148C98.4366 74.3109 96.9859 77.5518 96.7738 82.2825C96.7724 82.4905 96.5893 82.6713 96.3813 82.67C96.1733 82.6687 95.9925 82.4855 95.9939 82.2515C96.2071 77.3648 97.7891 73.9168 99.6087 69.8983C100.98 66.891 102.536 63.4688 103.866 58.7452C107.324 46.521 111.02 41.7345 114.5 38.4026C118.686 34.3732 121.082 33.7124 121.836 33.6132L123.759 29.8034C123.838 29.6219 124.046 29.5452 124.228 29.5984L135.439 32.9719C135.62 33.025 135.723 33.2077 135.722 33.3897L135.115 38.9759C135.243 39.2368 135.371 39.4976 135.526 39.7586C136.991 42.42 138.969 46.0726 133.771 53.9437C131.697 57.1025 130.685 60.8141 129.433 65.5123C128.235 69.9247 126.903 74.9083 124.291 80.9498C118.881 93.4736 112.512 97.3591 112.251 97.5134C112.199 97.5391 112.121 97.5646 112.069 97.5643Z" fill="black"/>
<path d="M97.7189 76.7243C97.1877 78.489 96.8899 80.3331 96.8002 82.1786L102.021 87.152L113.643 95.2602C115.029 94.047 117.123 91.8763 119.355 88.4324C110.085 78.2592 100.734 76.8736 97.7189 76.7243Z" fill="#EA6C56"/>
<path d="M134.912 50.2585C132.615 43.5617 129.919 38.2404 127.49 39.863C121.746 43.7265 120.075 61.1361 121.358 63.7444C122.256 65.5701 125.808 67.1528 127.857 67.9459C129.481 62.0801 130.472 57.4843 132.94 53.704C133.701 52.6168 134.333 51.4508 134.912 50.2585Z" fill="#EA6C56"/>
<path d="M93.9197 77.2716C93.9197 77.2716 106.57 83.2024 113.482 88.0305C127.123 97.5556 131.917 108.22 138.481 126.801C140.294 131.96 142.941 136.813 146.294 141.125L85.21 158.806C85.21 158.806 83.7236 155.416 78.301 129.121C74.5681 111.053 75.5111 89.5566 81.8737 82.577C81.8477 82.5768 94.1381 83.7992 93.9197 77.2716Z" fill="#EA6C56"/>
<path d="M93.9197 77.2716C93.9197 77.2716 106.57 83.2024 113.482 88.0305C127.123 97.5556 131.917 108.22 138.481 126.801C140.294 131.96 142.941 136.813 146.294 141.125L85.21 158.806C85.21 158.806 83.7236 155.416 78.301 129.121C74.5681 111.053 75.5111 89.5566 81.8737 82.577C81.8737 82.577 82.7049 82.6603 83.9009 82.6679C87.3588 82.6899 94.0969 82.1089 93.9197 77.2716ZM93.9244 76.4917C93.7684 76.4907 93.6121 76.5417 93.4816 76.6188C93.2466 76.7733 93.115 77.0325 93.1393 77.2927C93.2115 78.2031 92.8679 79.085 92.2396 79.757C90.3814 81.6692 86.2196 81.9287 83.9057 81.9139C82.7617 81.9066 81.9562 81.8235 81.9562 81.8235L81.8522 81.8228C81.6182 81.8213 81.4096 81.924 81.2786 82.0792C78.1628 85.4914 76.1164 92.4465 75.5116 101.673C74.9368 110.275 75.6786 120.342 77.5196 129.298C82.8917 155.359 84.4286 158.983 84.4796 159.139C84.6078 159.426 84.8926 159.61 85.1786 159.612C85.2566 159.612 85.3346 159.613 85.4128 159.587L146.471 141.854C146.888 141.726 147.125 141.312 146.997 140.895C146.972 140.791 146.921 140.687 146.843 140.608C143.568 136.349 140.972 131.601 139.185 126.519C135.762 116.851 132.922 109.657 129.268 103.601C125.306 97.05 120.58 92.0538 113.901 87.3832C107.016 82.5812 94.3656 76.6245 94.2359 76.5716C94.1323 76.519 94.0024 76.4922 93.9244 76.4917Z" fill="black"/>
<path d="M151.882 129.148C151.882 129.148 144.295 108.013 151.243 98.9054C158.191 89.7975 209.01 83.4652 209.01 83.4652L216.949 106.552L189.188 117.634" fill="#426C89"/>
<path d="M151.88 129.539C151.724 129.538 151.568 129.433 151.517 129.276C151.211 128.416 143.932 107.83 150.932 98.6699C157.933 89.5103 206.905 83.3483 208.987 83.1015C209.169 83.0767 209.35 83.1819 209.401 83.3642L217.34 106.451C217.417 106.66 217.311 106.867 217.129 106.944L189.368 118.025C189.159 118.102 188.952 117.997 188.849 117.814C188.746 117.631 188.878 117.398 189.06 117.295L216.457 106.342L208.747 83.906C204.454 84.4507 158.03 90.629 151.553 99.1419C144.815 107.991 152.196 128.813 152.247 129.021C152.324 129.229 152.218 129.437 152.01 129.513C151.958 129.539 151.932 129.539 151.88 129.539Z" fill="black"/>
<path d="M210.365 83.1104C212.424 78.1834 215.261 73.6254 218.797 69.6178C219.504 68.8163 220.727 68.7461 221.528 69.4532C221.787 69.6889 221.967 69.976 222.069 70.3147L232.064 101.215C232.064 101.215 224.935 106.11 218.074 105.624L210.365 83.1104Z" fill="#426C89"/>
<path d="M218.955 106.072C218.643 106.07 218.357 106.068 218.045 106.04C217.889 106.039 217.759 105.934 217.708 105.778L210 83.238C209.974 83.1599 209.975 83.0559 210.002 82.978C212.087 77.9992 214.951 73.4154 218.512 69.356C219.377 68.3995 220.859 68.3309 221.816 69.195C222.1 69.4569 222.332 69.7963 222.459 70.1872L232.455 101.087C232.506 101.244 232.452 101.425 232.296 101.528C232.008 101.735 225.584 106.114 218.955 106.072ZM218.362 105.288C224.236 105.585 230.343 101.906 231.597 101.082L221.704 70.4424C221.423 69.6345 220.542 69.1869 219.734 69.4678C219.473 69.5441 219.264 69.6988 219.081 69.8796C215.624 73.8357 212.813 78.2899 210.781 83.113L218.362 105.288Z" fill="black"/>
<path d="M135.338 118.227L76.3868 115.329C76.4113 115.563 76.4099 115.771 76.4345 116.005L77.7139 119.238L135.849 119.582C135.67 119.113 135.491 118.67 135.338 118.227Z" fill="#EA6C56"/>
<path d="M203.077 84.312C203.077 84.312 209.117 99.3528 211.372 108.623L218.541 105.757L210.598 83.2419L203.077 84.312Z" fill="white"/>
<path d="M211.396 109.013C211.344 109.013 211.266 108.986 211.214 108.96C211.11 108.907 211.033 108.803 211.008 108.699C208.778 99.5844 202.789 84.5959 202.712 84.4394C202.636 84.2309 202.741 84.0236 202.949 83.9469C202.975 83.9471 203.002 83.9213 203.028 83.9214L210.548 82.8773C210.73 82.8525 210.912 82.9576 210.963 83.14L218.905 105.655C218.982 105.863 218.877 106.071 218.694 106.148L211.526 109.014C211.5 109.014 211.448 109.014 211.396 109.013ZM203.647 84.6274C204.671 87.182 209.582 99.7975 211.688 108.105L218.074 105.546L210.361 83.6822L203.647 84.6274Z" fill="black"/>
<path d="M125.028 120.215C125.028 120.215 153.787 87.1953 167.144 92.5325C180.5 97.8698 188.582 110.714 190.265 120.058C191.947 129.403 195.069 141.357 195.069 141.357L175.501 151.997C175.501 151.997 161.071 131.521 159.923 128.029C158.776 124.538 125.028 120.215 125.028 120.215Z" fill="#426C89"/>
<path d="M175.499 152.387C175.369 152.387 175.265 152.334 175.188 152.229C174.595 151.394 160.706 131.675 159.559 128.157C159.355 127.558 157.259 125.907 141.988 123.209C133.521 121.725 125.078 120.631 124.974 120.631C124.766 120.603 124.611 120.42 124.613 120.213C124.613 120.135 124.666 120.057 124.718 120.005C129.746 114.369 135.11 109.073 140.81 104.117C152.679 93.9489 161.596 89.9496 167.276 92.1958C173.449 94.6532 179.011 98.9527 183.37 104.571C187.083 109.378 189.725 114.985 190.629 120.009C192.287 129.224 195.409 141.152 195.434 141.282C195.485 141.465 195.406 141.646 195.249 141.723L175.681 152.363C175.629 152.362 175.577 152.388 175.499 152.387ZM125.81 119.934C128.045 120.234 135.085 121.189 142.123 122.43C159.524 125.479 160.085 127.251 160.288 127.902C161.334 131.081 173.856 148.997 175.608 151.504L194.603 141.173C194.121 139.272 191.381 128.568 189.848 120.16C188.09 110.451 179.667 97.9949 166.959 92.9218C154.978 88.0874 129.634 115.642 125.81 119.934Z" fill="black"/>
<path d="M126.177 119.521L166.944 119.754L127.722 117.814C127.067 118.538 126.544 119.107 126.177 119.521Z" fill="#59298F"/>
<path d="M195.508 141.855C195.508 141.855 203.538 142.556 210.946 146.971C211.852 147.523 212.157 148.721 211.605 149.627C211.421 149.912 211.186 150.171 210.873 150.325L182.432 166.004C182.432 166.004 175.813 160.163 174.973 153.32L195.508 141.855Z" fill="#426C89"/>
<path d="M182.455 166.42C182.351 166.419 182.274 166.393 182.196 166.314C181.912 166.078 175.448 160.291 174.608 153.37C174.583 153.214 174.662 153.058 174.819 152.981L195.328 141.489C195.407 141.464 195.485 141.438 195.563 141.439C195.641 141.439 203.774 142.219 211.156 146.608C212.27 147.292 212.599 148.724 211.942 149.811C211.732 150.148 211.444 150.432 211.078 150.638L182.638 166.317C182.586 166.395 182.534 166.394 182.455 166.42ZM175.439 153.531C176.26 159.386 181.427 164.515 182.513 165.536L210.719 149.986C211.475 149.549 211.741 148.614 211.304 147.857C211.176 147.623 210.995 147.439 210.762 147.308C204.001 143.287 196.623 142.356 195.61 142.245L175.439 153.531Z" fill="black"/>
<path d="M192.978 134.922C192.978 134.922 179.852 142.431 171.194 146.432L175.232 153.452L195.454 142.14L192.978 134.922Z" fill="white"/>
<path d="M175.203 153.842C175.073 153.841 174.944 153.762 174.866 153.631L170.829 146.612C170.726 146.429 170.78 146.195 170.962 146.092C170.962 146.092 170.988 146.093 170.989 146.067C179.542 142.143 192.616 134.66 192.746 134.583C192.929 134.48 193.162 134.534 193.291 134.716C193.291 134.742 193.317 134.769 193.317 134.795L195.793 141.987C195.844 142.169 195.765 142.35 195.608 142.453L175.386 153.765C175.333 153.816 175.281 153.816 175.203 153.842ZM171.713 146.591L175.339 152.906L194.935 141.929L192.74 135.493C190.496 136.779 179.432 143.026 171.713 146.591Z" fill="black"/>
<path d="M70.9537 66.2055C70.9537 66.2055 64.831 72.2506 61.2454 63.6996C59.35 59.2154 50.5996 49.2014 43.9995 52.6435C37.3995 56.0855 33.221 50.8067 28.2132 49.1888C22.4529 47.3321 12.6289 54.8356 22.643 66.4697C46.4135 94.0777 77.8597 75.9477 77.8597 75.9477L75.4281 65.844L70.9537 66.2055Z" fill="#426C89"/>
<path d="M26.3946 48.9434C27.0186 48.9474 27.6161 49.0292 28.2129 49.215C32.0012 50.4351 35.3339 53.7845 39.5978 53.8116C41.132 53.7954 42.6424 53.415 43.9992 52.6696C44.9123 52.1815 45.9278 51.9539 46.9678 51.9605C52.9997 51.999 59.6317 59.8674 61.2451 63.7258C62.7307 67.2453 64.6222 68.2714 66.3642 68.2825C68.8341 68.2982 70.9537 66.2055 70.9537 66.2055L75.4536 65.8964L77.8852 76.0001C77.8852 76.0001 67.6032 81.9407 54.3434 81.8562C44.4116 81.7929 32.8372 78.3651 22.6423 66.5479C13.6351 56.0382 20.7007 48.9071 26.3946 48.9434ZM26.3996 48.1634C23.0716 48.1422 19.7561 50.2531 18.3586 53.3123C17.304 55.5936 16.3892 60.4239 22.0674 67.0122C26.8421 72.5547 32.3019 76.6976 38.2915 79.2838C43.3736 81.4743 48.8266 82.601 54.3386 82.6102C67.6504 82.695 77.8534 76.9099 78.2971 76.6527C78.5842 76.4725 78.7424 76.1355 78.6665 75.797L76.2349 65.6933C76.159 65.3548 75.8487 65.0928 75.4847 65.0905L75.4327 65.0902L70.9325 65.4255C70.7503 65.4504 70.5678 65.5272 70.437 65.6564C70.4108 65.6822 68.5011 67.5161 66.3951 67.5027C64.6012 67.4912 63.128 66.1038 62.0011 63.4186C60.2595 59.2734 53.3946 51.2215 46.9987 51.1807C45.8288 51.1733 44.683 51.452 43.6657 51.9655C42.4392 52.6597 41.0589 53.0149 39.6288 53.0318C37.1849 53.0162 35.0863 51.8328 32.8323 50.5704C31.4333 49.7815 29.9825 48.9663 28.4775 48.4887C27.803 48.2504 27.1017 48.1419 26.3996 48.1634Z" fill="black"/>
<path d="M83.0228 81.7263C83.0228 81.7263 83.2818 81.884 83.748 82.173C86.39 83.7498 92.6865 87.144 96.3641 85.3474C100.642 83.2426 95.6172 80.1426 95.6172 80.1426C101.5 83.1701 98.585 79.5635 98.585 79.5635L94.5963 77.146L83.0228 81.7263Z" fill="white"/>
<path d="M93.8104 86.2417C90.3265 86.2195 86.0763 84.0343 83.538 82.5101C83.0716 82.2472 82.8128 82.0635 82.8128 82.0635C82.6315 81.9583 82.5811 81.698 82.6863 81.5167C82.7388 81.439 82.7911 81.3874 82.8693 81.3619L94.4169 76.7553C94.5212 76.704 94.651 76.7308 94.7547 76.7835L98.7434 79.201C98.7692 79.2271 98.821 79.2534 98.8469 79.2796C99.208 79.7239 99.9811 80.8209 99.5091 81.4419C99.2733 81.7264 98.8823 81.8799 97.7147 81.5084C98.1793 82.0314 98.435 82.7091 98.4305 83.411C98.3987 84.3209 97.7438 85.0967 96.4918 85.7127C95.6835 86.0716 94.7462 86.2736 93.8104 86.2417ZM83.9064 81.8105L83.9583 81.8368C86.4706 83.3608 92.7154 86.7027 96.1845 84.9828C97.1496 84.4949 97.6471 83.9521 97.6769 83.3542C97.7363 82.1846 96.0547 80.8739 95.3813 80.4536C95.2002 80.3224 95.1497 80.0881 95.2808 79.9069C95.3858 79.7516 95.5941 79.7009 95.7756 79.7801C98.0821 80.9648 98.7321 80.9689 98.8883 80.9439C98.7609 80.5271 98.5553 80.1618 98.2974 79.8221L94.5419 77.5361L83.9064 81.8105Z" fill="black"/>
<path d="M69.5999 62.3751C72.8881 62.396 75.5707 59.7474 75.5917 56.4592C75.6126 53.1709 72.964 50.4883 69.6758 50.4673C66.3875 50.4464 63.7049 53.095 63.6839 56.3833C63.663 59.6715 66.3116 62.3541 69.5999 62.3751Z" fill="#426C89"/>
<path d="M69.6758 50.4409C72.9778 50.462 75.6388 53.131 75.6438 56.4331C75.6227 59.735 72.9537 62.3961 69.6516 62.401C66.3497 62.38 63.6886 59.711 63.6837 56.4089C63.7006 53.7569 65.4576 51.4021 68.0362 50.6905C68.5572 50.5378 69.1297 50.4634 69.6758 50.4409ZM69.6808 49.6609C65.9629 49.6372 62.9277 52.634 62.904 56.3519C62.8803 60.0698 65.877 63.105 69.595 63.1287C73.3389 63.1525 76.3742 60.1298 76.3721 56.3857C76.3761 55.7617 76.302 55.1372 76.1239 54.5381C75.3099 51.6988 72.6966 49.7061 69.6808 49.6609Z" fill="black"/>
<path d="M91.0354 89.2144C85.9662 80.9139 73.3659 79.3516 63.0925 71.694C52.8191 64.0363 46.4914 61.448 40.5185 60.3179C33.0394 58.8922 30.8568 62.7524 30.8568 62.7524L26.7249 62.414L22.3521 71.3044L26.7366 72.8143C27.5497 75.7836 27.9233 78.36 38.9085 80.406C47.6604 82.0218 49.3347 92.6407 62.4681 100.317C75.6014 107.992 83.5068 107.809 83.5068 107.809" fill="#EA6C56"/>
<path d="M83.4262 108.198C82.3862 108.192 74.718 107.883 62.2839 100.653C55.8078 96.868 51.9891 92.2676 48.9443 88.6081C45.7192 84.6874 43.1648 81.6031 38.8277 80.8214C27.9204 78.8019 27.235 76.1975 26.4219 73.2282L26.3964 73.1501L22.2196 71.6934C22.0121 71.6141 21.9094 71.4054 21.9887 71.1979C21.9887 71.1979 21.9889 71.1719 22.0149 71.1721L26.3878 62.2558C26.4668 62.1003 26.6233 62.0233 26.7791 62.0503L30.6772 62.3611C31.2805 61.5329 33.8988 58.6636 40.5987 59.9543C45.7405 60.9491 52.0455 63.0173 63.3282 71.4094C67.5462 74.5563 72.0832 76.6133 76.4644 78.6432C82.5567 81.4381 88.338 84.075 91.3743 89.0604C91.4771 89.2431 91.4237 89.4768 91.2408 89.6056C91.0582 89.7085 90.8245 89.655 90.6957 89.4721C87.7881 84.6955 82.3697 82.2169 76.1218 79.3691C71.6886 77.3388 67.0998 75.2555 62.8301 72.0562C51.6508 63.7428 45.4497 61.7012 40.4118 60.7331C33.3482 59.3881 31.2462 62.8328 31.1674 62.9623C31.0886 63.0918 30.9581 63.1689 30.8021 63.1679L26.956 62.8574L22.899 71.1517L26.8683 72.5291C26.9982 72.5559 27.1015 72.6605 27.1267 72.7907L27.203 73.0512C27.9396 75.786 28.5745 78.156 39.0144 80.0946C43.611 80.9559 46.2427 84.1448 49.5711 88.1701C52.7447 92.0124 56.3313 96.3253 62.7036 100.058C75.5782 107.55 83.4567 107.496 83.5347 107.497C83.7427 107.498 83.9235 107.681 83.9222 107.889C83.9209 108.097 83.7377 108.278 83.5297 108.277L83.4262 108.198Z" fill="black"/>
<path d="M27.3111 72.4273C27.9659 71.6774 32.1267 67.4919 30.8542 63.1677C30.8017 63.2453 30.5167 63.0875 30.5167 63.0875L26.9038 62.9085L23.1322 71.3086L27.3111 72.4273Z" fill="#EA6C56"/>
<path d="M18.9183 59.3217C23.6556 58.5199 23.8447 57.403 27.063 58.3076C29.1135 58.8666 29.5048 62.7432 28.0764 66.5562C26.6481 70.3692 23.9019 72.8997 21.9046 72.159C19.9073 71.4182 18.4576 70.421 16.1751 69.5484" fill="#FFCDB2"/>
<path d="M22.6293 72.6836C22.3433 72.6818 22.0576 72.628 21.7723 72.5221C20.8645 72.1783 19.9571 71.7566 19.076 71.3089C18.0913 70.7826 17.0801 70.3342 16.0427 69.9376C15.835 69.8843 15.7063 69.6754 15.7856 69.4679C15.839 69.2603 16.0478 69.1316 16.2553 69.2109C16.2813 69.2111 16.2813 69.2111 16.3071 69.2373C17.3706 69.634 18.4076 70.1086 19.4183 70.6351C20.2734 71.0826 21.1289 71.478 22.0368 71.8218C22.8409 72.1129 23.8832 71.7556 24.9293 70.8002C26.0538 69.7934 27.0257 68.2395 27.6871 66.4497C28.6395 63.8817 28.7607 61.1785 28.0162 59.6917C27.8112 59.2224 27.4235 58.8559 26.9305 58.6967C24.9839 58.1643 24.2285 58.3675 22.7176 58.8259C21.4931 59.2081 20.2172 59.512 18.9419 59.7119C18.7337 59.7365 18.5265 59.6052 18.4759 59.3969C18.4512 59.1887 18.5825 58.9816 18.7908 58.9309C20.0401 58.7308 21.2641 58.4266 22.4626 58.0443C24.0517 57.5604 24.9373 57.306 27.0915 57.9178C27.7921 58.1302 28.3608 58.6539 28.6687 59.3058C29.5419 61.0014 29.4195 63.8867 28.3876 66.6882C27.6734 68.6077 26.6229 70.239 25.4198 71.3494C24.5041 72.2535 23.5393 72.6894 22.6293 72.6836Z" fill="black"/>
<path d="M94.4271 58.8151C94.4271 58.8151 95.0599 53.359 91.2217 51.8005C87.3836 50.2421 86.9098 51.1491 84.9398 50.2005C82.9698 49.2519 78.9336 50.2142 77.1468 53.1669C77.1468 53.1669 72.0474 53.6804 69.9469 56.8911C67.8464 60.1018 68.0925 62.2874 69.2702 65.155C70.448 68.0225 70.5415 69.6611 71.3086 71.6941C72.0756 73.727 75.0078 78.7378 83.6545 76.4528C92.3012 74.1679 94.4271 58.8151 94.4271 58.8151Z" fill="#426C89"/>
<path d="M83.226 49.8511C83.8242 49.8289 84.4213 49.9627 84.9658 50.2002C86.9098 51.1486 87.4354 50.2679 91.2478 51.8003C95.0601 53.3326 94.4531 58.8148 94.4531 58.8148C94.4531 58.8148 92.3529 74.2197 83.7064 76.4787C82.3519 76.8601 80.9468 77.0331 79.5426 77.0502C74.0827 77.0154 72 73.362 71.3866 71.6941C70.6195 69.6611 70.5261 67.9965 69.3482 65.155C68.1703 62.3134 67.9244 60.1018 70.0249 56.8911C72.1254 53.6804 77.2248 53.1669 77.2248 53.1669C78.5392 50.9133 81.1721 49.838 83.226 49.8511ZM83.257 49.0713C81.125 49.0577 78.3363 50.1059 76.7354 52.4358C75.4341 52.6355 71.2687 53.467 69.3256 56.4706C67.0412 59.9662 67.3376 62.4121 68.5922 65.4622C69.1301 66.7396 69.5377 68.0682 69.867 69.4224C70.0694 70.3077 70.3239 71.1673 70.6306 72.0013C71.142 73.3566 73.2976 77.8164 79.5115 77.856C80.9936 77.8394 82.4509 77.6407 83.8834 77.2598C87.6598 76.2699 90.8282 72.754 93.0223 67.0999C94.0272 64.4542 94.7726 61.7289 95.2063 58.9496L95.2065 58.9236C95.2341 58.6638 95.843 52.8696 91.5382 51.1001C89.3079 50.2019 88.1646 50.0906 87.2293 49.9806C86.5795 49.9505 85.9305 49.7903 85.3343 49.5005C84.6601 49.2102 83.9591 49.0498 83.257 49.0713Z" fill="black"/>
<path d="M37.4665 74.1041C38.1701 74.1086 38.7441 73.5419 38.7486 72.8383C38.7531 72.1347 38.1863 71.5607 37.4827 71.5562C36.7791 71.5517 36.2051 72.1184 36.2006 72.822C36.1962 73.5256 36.7629 74.0996 37.4665 74.1041Z" fill="#EA6C56"/>
<path d="M90.6917 73.7413L95.2839 79.3867C95.2839 79.3867 96.2712 83.579 84.3292 80.7209C84.3292 80.7209 84.6329 77.9408 82.0715 71.8663C82.0715 71.8663 79.539 73.5142 77.9668 71.3461C76.3946 69.1781 77.5765 67.3136 78.9829 66.9325C78.9829 66.9325 84.8661 65.826 81.0604 55.0895C81.0604 55.0895 86.2487 52.8605 90.8576 55.88C95.4664 58.8994 99.1777 64.0451 97.5389 68.2468C95.9001 72.4484 90.6917 73.7413 90.6917 73.7413Z" fill="#FFCDB2"/>
<path d="M85.4598 54.2595C87.3839 54.2458 89.2524 54.8037 90.8838 55.8541C95.4926 58.8735 99.2039 64.0193 97.5651 68.2209C95.9263 72.4226 90.6917 73.7413 90.6917 73.7413L95.2839 79.3867C95.2839 79.3867 95.8408 81.7562 91.0569 81.7257C89.4709 81.7156 87.2886 81.4418 84.3292 80.7209C84.3292 80.7209 84.6329 77.9408 82.0715 71.8663C81.4712 72.2265 80.7678 72.456 80.0656 72.4775C79.2336 72.4722 78.4563 72.0512 77.9928 71.3463C76.4467 69.1524 77.6025 67.3137 79.0089 66.9326C79.0089 66.9326 84.8921 65.8261 81.0864 55.0897C82.468 54.5265 83.9518 54.2499 85.4598 54.2595ZM85.4648 53.4795C83.8528 53.4693 82.265 53.7451 80.7792 54.3337C80.4142 54.4874 80.2034 54.928 80.3569 55.319C82.1701 60.4787 81.6331 63.1533 80.8705 64.5005C80.4493 65.3038 79.7177 65.8711 78.8579 66.1517L78.7797 66.1772C77.7898 66.4829 77.005 67.2319 76.6609 68.1917C76.2636 69.3332 76.5154 70.6088 77.366 71.7843C77.9582 72.6981 78.9947 73.2507 80.0868 73.2316C80.6328 73.2351 81.1796 73.1086 81.7009 72.9039C83.7736 78.1432 83.5758 80.612 83.5757 80.638C83.5472 81.0278 83.8049 81.3935 84.1684 81.4738C86.9462 82.1415 89.258 82.4943 91.0779 82.5059C93.2879 82.5199 94.825 82.0357 95.5851 81.0785C96.0044 80.5612 96.1907 79.8864 96.065 79.2096C96.0397 79.1054 95.9885 78.9751 95.911 78.8966L92.0413 74.1398C93.7875 73.4749 97.0481 71.8317 98.3172 68.5117C100.168 63.7134 95.9906 58.2527 91.3299 55.2069C89.569 54.0777 87.5449 53.4668 85.4648 53.4795Z" fill="black"/>
<path d="M88.659 74.5088C88.269 74.5063 87.9051 74.478 87.5153 74.4495C87.3075 74.4222 87.1528 74.2132 87.1801 74.0053C87.2074 73.7975 87.4164 73.6428 87.6243 73.6702C87.6503 73.6703 89.7287 73.9176 91.1884 73.3548C91.3969 73.2782 91.604 73.4095 91.6807 73.618C91.7315 73.8003 91.6522 74.0078 91.4697 74.0847C90.5839 74.3651 89.6209 74.5149 88.659 74.5088Z" fill="black"/>
<path d="M81.036 71.2096C81.01 71.2095 80.984 71.2093 80.958 71.2092C79.7899 70.9157 79.065 70.4171 78.8357 69.6876C78.4783 68.6453 79.3167 67.6366 79.3431 67.5848C79.4741 67.4296 79.7342 67.4053 79.8894 67.5363C80.0446 67.6673 80.0689 67.9275 79.9379 68.0826C79.9377 68.1086 79.3613 68.8069 79.5653 69.4323C79.7438 69.9794 80.522 70.2704 81.145 70.4303C81.3527 70.4837 81.4813 70.6925 81.428 70.9001C81.3747 71.1078 81.218 71.2108 81.036 71.2096Z" fill="black"/>
<path d="M86.928 60.5611C85.0665 62.9933 81.13 64.6322 81.3038 65.9074C81.4777 67.1825 82.8251 67.9191 84.2862 67.1224C85.7473 66.3257 86.9502 65.2414 89.2793 62.8901C91.6083 60.5389 93.7302 58.0564 92.307 56.9813C90.8838 55.9062 89.681 56.9646 86.928 60.5611Z" fill="#FFB49F"/>
<path d="M83.0946 66.4126L83.0686 66.4125C82.8608 66.3851 82.7059 66.2022 82.7073 65.9942C82.9888 62.6159 86.1096 62.5058 86.1356 62.5059C86.3436 62.5073 86.5244 62.6904 86.5231 62.8984C86.5218 63.1064 86.3386 63.2872 86.1306 63.2859C86.0266 63.2853 83.686 63.3743 83.4609 66.051C83.4596 66.259 83.2766 66.4138 83.0946 66.4126Z" fill="black"/>
<path d="M85.9301 58.007C85.7221 58.0057 85.5411 57.8486 85.5164 57.6404C85.5177 57.4324 85.6749 57.2514 85.883 57.2267C86.4815 57.1526 87.055 56.9222 87.5511 56.5874C87.7339 56.4585 87.9677 56.486 88.0966 56.6689C88.2256 56.8257 88.1979 57.0855 88.0151 57.2143C87.4143 57.6525 86.7107 57.908 85.9561 58.0072L85.9301 58.007Z" fill="black"/>
<path d="M88.0908 69.8502C87.5968 69.8471 87.1035 69.74 86.6365 69.581C86.429 69.5017 86.3525 69.2672 86.4318 69.0597C86.511 68.8782 86.6936 68.7753 86.9013 68.8287C89.2363 69.6235 90.2087 67.9917 90.2612 67.914C90.3664 67.7327 90.6009 67.6562 90.7822 67.7614C90.9635 67.8665 91.04 68.101 90.9349 68.2823C90.3306 69.2665 89.2348 69.8575 88.0908 69.8502Z" fill="black"/>
<path d="M75.3645 67.6373C75.2345 67.6365 75.1565 67.636 75.1305 67.6358C74.9225 67.6345 74.7417 67.4513 74.769 67.2435C74.7703 67.0355 74.9535 66.8547 75.1613 66.882C75.1873 66.8822 78.6964 67.0345 80.449 65.3817C80.606 65.2267 80.84 65.2281 80.995 65.3851C81.15 65.5421 81.1485 65.7761 80.9915 65.9311C80.9915 65.9311 80.9915 65.9311 80.9653 65.957C79.2653 67.5321 76.2485 67.6429 75.3645 67.6373Z" fill="black"/>
<path d="M78.0787 66.043C77.9487 66.0422 77.819 65.9894 77.7418 65.8589C77.613 65.676 77.6665 65.4424 77.8493 65.3135C82.1049 62.5586 79.7955 57.7598 79.6928 57.5511C79.59 57.3685 79.6694 57.135 79.8781 57.0323C80.0608 56.9295 80.2943 57.0089 80.3969 57.2176C80.4226 57.2698 83.1173 62.8251 78.2871 65.9663C78.2347 66.044 78.1567 66.0435 78.0787 66.043Z" fill="white"/>
<path d="M61.3381 57.2779C61.2081 57.2771 61.0786 57.1983 61.0015 57.0678C60.2818 55.7632 60.108 54.462 60.4537 53.2682C61.0912 51.1402 63.1525 50.0093 63.2308 49.9578C63.4135 49.855 63.647 49.9345 63.7496 50.1431C63.8525 50.3258 63.773 50.5593 63.5903 50.6621C63.5643 50.662 61.7117 51.6902 61.1801 53.5068C60.8877 54.519 61.0369 55.586 61.6538 56.7079C61.7566 56.8906 61.6771 57.1241 61.4945 57.2269C61.4683 57.2528 61.3901 57.2783 61.3381 57.2779Z" fill="black"/>
<path d="M91.0906 64.228C91.0126 64.2275 90.9607 64.2012 90.9089 64.1749L86.6086 61.7034C86.4273 61.5983 86.3508 61.3638 86.4559 61.1824C86.5611 61.0011 86.7956 60.9246 86.9769 61.0298L91.2772 63.5012C91.4585 63.6063 91.5351 63.8408 91.4299 64.0222C91.3511 64.1517 91.2206 64.2288 91.0906 64.228Z" fill="black"/>
<path d="M140.223 28.9203C144.939 27.2343 149.373 25.1825 148.839 27.3112C148.279 29.5436 146.107 31.7659 139.965 32.6887C134.109 33.5614 133.519 32.3357 133.519 32.3357" fill="#FFCDB2"/>
<path d="M136.268 33.3933C133.85 33.3779 133.308 32.7505 133.18 32.5156C133.103 32.3072 133.182 32.0997 133.365 31.9968C133.547 31.92 133.755 31.9733 133.858 32.13C133.91 32.1823 134.84 33.0462 139.915 32.2986C144.938 31.5506 147.809 29.8528 148.476 27.231C148.529 27.0753 148.53 26.9194 148.478 26.893C148.012 26.4741 145.12 27.5476 142.8 28.4169C142.018 28.7239 141.184 29.0306 140.376 29.3114C140.168 29.3621 139.961 29.2308 139.91 29.0485C139.859 28.8661 139.964 28.6588 140.121 28.5818C140.955 28.3011 141.763 27.9943 142.545 27.6872C146.245 26.3068 148.226 25.6174 149.002 26.2983C149.208 26.4817 149.388 26.7948 149.254 27.418C148.508 30.3773 145.427 32.2817 140.066 33.0795C138.791 33.2794 137.542 33.3755 136.268 33.3933Z" fill="black"/>
<path d="M128.709 24.1408C128.709 24.1408 137.3 18.3974 138.482 20.485C139.665 22.5726 133.799 25.1092 133.209 27.9395C132.619 30.7698 128.709 24.1408 128.709 24.1408Z" fill="#FFCDB2"/>
<path d="M132.656 29.0538C131.252 29.0448 129.038 25.4686 128.396 24.3465C128.293 24.1639 128.346 23.9302 128.529 23.8274C129.26 23.338 135.657 19.1407 138.019 19.7018C138.383 19.7821 138.668 19.9919 138.848 20.3051C139.619 21.688 138.102 23.0564 136.481 24.528C135.252 25.6122 133.866 26.8514 133.624 28.0459C133.463 28.7989 133.098 29.0046 132.812 29.0548C132.76 29.0544 132.708 29.0541 132.656 29.0538ZM129.254 24.274C130.618 26.5187 132.192 28.3488 132.661 28.2738C132.713 28.2741 132.791 28.1446 132.845 27.8849C133.14 26.4568 134.578 25.1659 135.938 23.9266C137.324 22.6874 138.632 21.5257 138.143 20.6906C138.066 20.5601 137.936 20.4813 137.807 20.4544C136.171 20.08 131.343 22.9093 129.254 24.274Z" fill="black"/>
<path d="M124.695 29.7051C124.695 29.7051 125.882 23.0045 131.232 23.9746C136.582 24.9447 138.573 26.6994 141.268 23.9866C145.769 19.4391 149.228 19.2532 145.202 26.7937C141.176 34.3342 128.405 35.1628 128.405 35.1628" fill="#FFCDB2"/>
<path d="M128.402 35.5789C128.194 35.5776 128.013 35.4204 127.988 35.2123C127.964 35.0041 128.147 34.8233 128.355 34.7986C128.485 34.7994 140.971 33.891 144.839 26.6355C147.234 22.1267 146.459 21.3677 146.355 21.2891C145.941 20.9744 144.248 21.5096 141.5 24.2742C139.354 26.4445 137.615 25.9655 134.734 25.2191C133.696 24.9525 132.528 24.633 131.125 24.3901C129.957 24.1486 128.759 24.375 127.767 25.0447C125.626 26.5391 125.033 29.7853 125.033 29.8113C125.005 30.0192 124.796 30.1738 124.563 30.1464C124.329 30.1189 124.2 29.91 124.228 29.6762C124.255 29.5204 124.901 26.0664 127.303 24.3917C128.452 23.593 129.884 23.3161 131.234 23.6108C132.663 23.8799 133.857 24.1735 134.895 24.4661C137.698 25.212 139.1 25.5849 140.906 23.7244C141.9 22.7167 145.249 19.54 146.775 20.6677C147.759 21.402 147.329 23.5313 145.487 27.0036C141.486 34.6223 128.974 35.5306 128.402 35.5789Z" fill="black"/>
<path d="M81.1507 73.6285C81.6963 73.632 82.1415 73.1925 82.145 72.6468C82.1484 72.1012 81.7089 71.656 81.1633 71.6526C80.6176 71.6491 80.1725 72.0886 80.169 72.6342C80.1655 73.1799 80.605 73.625 81.1507 73.6285Z" fill="#EA6C56"/>
<path d="M81.1631 71.6786C81.7091 71.6821 82.1483 72.1269 82.1448 72.6729C82.142 73.1148 81.8537 73.477 81.4369 73.6044C81.3587 73.6299 81.2547 73.6292 81.1767 73.6287C80.6307 73.6252 80.2175 73.1806 80.221 72.6346C80.2237 72.2186 80.5121 71.8304 80.929 71.7031C80.981 71.7034 81.0851 71.6781 81.1631 71.6786ZM81.1681 70.8986C80.2061 70.8925 79.3952 71.6673 79.3889 72.6553C79.3826 73.6433 80.1576 74.4282 81.1456 74.4345C81.3016 74.4355 81.4837 74.4107 81.64 74.3597C82.5777 74.1056 83.104 73.121 82.8498 72.2093C82.6467 71.428 81.9481 70.9036 81.1681 70.8986Z" fill="black"/>
<path d="M65.6206 58.5013C65.4646 58.5003 65.3092 58.3953 65.2582 58.239C64.7217 56.7535 64.7301 55.4276 65.3091 54.3392C66.2563 52.5772 68.3137 52.0443 68.4179 52.019C68.6262 51.9683 68.8334 52.0996 68.884 52.308C68.9347 52.5163 68.8034 52.7235 68.5951 52.7741C68.5691 52.774 66.7721 53.2305 65.9827 54.7075C65.5091 55.5885 65.502 56.7065 65.962 57.9575C66.0387 58.166 65.9334 58.3733 65.7249 58.45C65.6987 58.4758 65.6726 58.5016 65.6206 58.5013Z" fill="white"/>
<path d="M122.534 34.2934L122.508 34.2932C123.206 34.9737 127.883 39.4496 134.334 38.9707L134.464 38.9455L135.044 33.6711L124.456 30.4836L122.534 34.2934Z" fill="#EA6C56"/>
<path d="M152.849 91.5835C154.443 90.4496 156.216 89.5509 158.092 88.9648C159.968 88.3528 161.92 88.0532 163.896 88.0398C165.794 88.0259 167.716 88.3241 169.533 88.8817C173.088 89.9964 176.272 92.1227 178.646 94.9979C178.801 95.1809 178.93 95.3638 179.085 95.5468C179.24 95.7038 179.474 95.7052 179.631 95.5502C179.788 95.3952 179.789 95.1612 179.634 95.0042C178.448 93.4886 177.052 92.1277 175.499 91.0258C173.946 89.8979 172.21 89.0028 170.394 88.3672C168.526 87.7053 166.604 87.355 164.629 87.2904C162.601 87.2255 160.572 87.4726 158.618 88.0322C156.665 88.5657 154.787 89.4118 153.09 90.519C152.881 90.6477 152.672 90.8023 152.463 90.957C152.281 91.0599 152.227 91.2935 152.33 91.4762C152.433 91.6068 152.667 91.6603 152.849 91.5835Z" fill="black"/>
<path d="M209.417 76.7079L213.484 70.9357L217.551 65.1374L219.834 61.8759C219.939 61.6946 219.889 61.4603 219.707 61.3291C219.526 61.2239 219.292 61.2744 219.161 61.4556L215.094 67.2278L211.053 73.0262L208.77 76.2877C208.665 76.4691 208.715 76.7034 208.897 76.8345C209.104 76.9399 209.338 76.8894 209.417 76.7079Z" fill="black"/>
<path d="M127.22 110.843C127.924 110.847 128.498 110.28 128.503 109.577C128.507 108.873 127.94 108.299 127.237 108.295C126.533 108.29 125.959 108.857 125.955 109.56C125.95 110.264 126.517 110.838 127.22 110.843Z" fill="#EA6C56"/>
<path d="M91.4719 114.567C92.1755 114.572 92.7495 114.005 92.754 113.301C92.7585 112.598 92.1917 112.024 91.4881 112.019C90.7845 112.015 90.2105 112.582 90.2061 113.285C90.2016 113.989 90.7683 114.563 91.4719 114.567Z" fill="#EA6C56"/>
<path d="M110.471 115.624C111.175 115.629 111.749 115.062 111.753 114.358C111.758 113.655 111.191 113.081 110.488 113.076C109.784 113.072 109.21 113.639 109.206 114.342C109.201 115.046 109.768 115.62 110.471 115.624Z" fill="#EA6C56"/>
<path d="M97.3642 99.7585C98.0678 99.763 98.6418 99.1963 98.6463 98.4927C98.6508 97.7891 98.084 97.215 97.3804 97.2105C96.6769 97.2061 96.1028 97.7728 96.0984 98.4764C96.0939 99.18 96.6606 99.754 97.3642 99.7585Z" fill="#EA6C56"/>
<path d="M115.204 103.356C115.907 103.36 116.481 102.794 116.486 102.09C116.49 101.386 115.924 100.812 115.22 100.808C114.516 100.803 113.942 101.37 113.938 102.074C113.933 102.777 114.5 103.351 115.204 103.356Z" fill="#EA6C56"/>
<path d="M105.538 90.0607C106.242 90.0652 106.816 89.4985 106.82 88.7949C106.825 88.0913 106.258 87.5173 105.555 87.5128C104.851 87.5084 104.277 88.0751 104.272 88.7787C104.268 89.4823 104.835 90.0562 105.538 90.0607Z" fill="#EA6C56"/>
<path d="M39.1259 66.6786C39.8295 66.6831 40.4035 66.1163 40.408 65.4127C40.4125 64.7091 39.8457 64.1351 39.1421 64.1307C38.4385 64.1262 37.8645 64.6929 37.86 65.3965C37.8555 66.1001 38.4223 66.6741 39.1259 66.6786Z" fill="#EA6C56"/>
<path d="M66.188 79.617C66.8916 79.6214 67.4656 79.0547 67.4701 78.3511C67.4746 77.6475 66.9078 77.0735 66.2042 77.069C65.5006 77.0645 64.9266 77.6313 64.9221 78.3349C64.9177 79.0385 65.4844 79.6125 66.188 79.617Z" fill="#EA6C56"/>
<path d="M49.7377 78.3422C50.4413 78.3467 51.0153 77.7799 51.0197 77.0763C51.0242 76.3727 50.4575 75.7987 49.7539 75.7943C49.0503 75.7898 48.4763 76.3565 48.4718 77.0601C48.4673 77.7637 49.0341 78.3377 49.7377 78.3422Z" fill="#EA6C56"/>
<path d="M70.2454 99.8193C70.949 99.8238 71.5231 99.257 71.5275 98.5534C71.532 97.8498 70.9653 97.2758 70.2617 97.2713C69.5581 97.2669 68.9841 97.8336 68.9796 98.5372C68.9751 99.2408 69.5418 99.8148 70.2454 99.8193Z" fill="#EA6C56"/>
<path d="M104.004 73.8521C104.707 73.8565 105.281 73.2898 105.286 72.5862C105.29 71.8826 104.723 71.3086 104.02 71.3041C103.316 71.2996 102.742 71.8664 102.738 72.57C102.733 73.2736 103.3 73.8476 104.004 73.8521Z" fill="#EA6C56"/>
<path d="M122.082 72.5632C122.786 72.5676 123.36 72.0009 123.364 71.2973C123.369 70.5937 122.802 70.0197 122.098 70.0152C121.395 70.0107 120.821 70.5775 120.816 71.2811C120.812 71.9847 121.379 72.5587 122.082 72.5632Z" fill="#EA6C56"/>
<path d="M114.202 52.5709C114.905 52.5753 115.479 52.0086 115.484 51.305C115.488 50.6014 114.921 50.0274 114.218 50.0229C113.514 50.0184 112.94 50.5852 112.936 51.2888C112.931 51.9924 113.498 52.5664 114.202 52.5709Z" fill="#EA6C56"/>
<path d="M129.309 48.3769C130.012 48.3814 130.586 47.8147 130.591 47.1111C130.595 46.4075 130.028 45.8335 129.325 45.829C128.621 45.8245 128.047 46.3912 128.043 47.0948C128.038 47.7984 128.605 48.3724 129.309 48.3769Z" fill="#EA6C56"/>
<path d="M175.84 102.833C177.08 104.14 178.241 105.526 179.324 106.963C180.407 108.426 181.411 109.966 182.337 111.558C183.237 113.15 184.058 114.767 184.75 116.462C186.158 119.799 187.176 123.315 187.777 126.907C187.802 127.115 187.852 127.35 187.877 127.558C187.928 127.766 188.161 127.872 188.343 127.821C188.552 127.744 188.657 127.537 188.606 127.354C188.332 125.533 187.953 123.736 187.471 121.965C186.988 120.194 186.375 118.448 185.684 116.754C184.993 115.033 184.197 113.364 183.324 111.746C181.55 108.511 179.385 105.507 176.88 102.813L176.416 102.29C176.054 101.898 175.505 102.466 175.84 102.833Z" fill="white"/>
<path d="M89.9999 59.957C90.3589 59.9593 90.6518 59.6702 90.6541 59.3112C90.6564 58.9522 90.3672 58.6593 90.0082 58.6571C89.6492 58.6548 89.3564 58.9439 89.3541 59.3029C89.3518 59.6619 89.641 59.9547 89.9999 59.957Z" fill="black"/>
<path d="M48.2095 57.0384C48.1575 57.0381 48.1055 57.0378 48.0537 57.0114C36.1511 52.0475 28.5311 40.0907 24.2213 30.937C21.3998 24.8869 19.204 18.5808 17.6852 12.097C17.6346 11.8887 17.7659 11.6815 18.0002 11.631C18.2345 11.5805 18.4157 11.7116 18.4662 11.946C19.9853 18.3778 22.1553 24.6577 24.9513 30.6297C29.1839 39.6528 36.7009 51.453 48.3701 56.3114C48.5776 56.3908 48.6541 56.6253 48.5748 56.8328C48.5222 56.9364 48.3655 57.0394 48.2095 57.0384Z" fill="black"/>
<path d="M21.4036 40.6173C21.2996 40.6166 21.2218 40.5901 21.1443 40.5116C13.2055 33.7009 8.35689 23.4258 5.67416 15.9985C3.96235 11.2555 2.64136 6.38499 1.73702 1.41313C1.71235 1.20497 1.84367 0.997799 2.07783 0.973291C2.28599 0.948617 2.49316 1.07994 2.51767 1.3141C2.56801 1.57443 6.66956 27.0811 21.6419 39.9428C21.7971 40.0737 21.8214 40.3339 21.6904 40.4891C21.6379 40.5667 21.5076 40.6179 21.4036 40.6173Z" fill="black"/>
<path d="M140.849 24.3741C140.849 24.3741 144.855 20.1356 146.384 20.8213C147.914 21.5071 145.827 26.6159 144.099 28.4769" fill="#FFCDB2"/>
<path d="M144.097 28.8666C143.993 28.8659 143.916 28.8134 143.838 28.761C143.683 28.604 143.684 28.37 143.815 28.2148C145.177 26.7674 146.786 23.1116 146.483 21.6276C146.408 21.2892 146.278 21.2103 146.226 21.21C145.371 20.8145 142.73 23.0078 141.134 24.6616C141.003 24.8168 140.743 24.8411 140.588 24.7101C140.432 24.5792 140.408 24.319 140.539 24.1638C140.539 24.1378 140.565 24.138 140.565 24.112C141.272 23.3625 144.857 19.7192 146.543 20.484C146.931 20.6685 147.189 21.0601 147.238 21.4765C147.591 23.2207 145.902 27.1101 144.384 28.7644C144.305 28.8419 144.201 28.8673 144.097 28.8666Z" fill="black"/>
<path d="M124.482 103.935C124.326 103.934 124.171 103.829 124.12 103.699C120.129 93.5334 102.765 84.6086 102.584 84.5294C102.376 84.4501 102.3 84.2156 102.379 84.0081C102.458 83.8006 102.693 83.7241 102.9 83.8034C102.9 83.8034 102.926 83.8036 102.926 83.8296C103.652 84.1982 120.73 92.9652 124.824 103.417C124.9 103.626 124.795 103.833 124.612 103.936C124.586 103.936 124.534 103.936 124.482 103.935Z" fill="white"/>
<path d="M20.8203 83.1762C20.6383 83.175 20.4831 83.044 20.4581 82.8879C20.2551 82.1066 15.639 63.9028 24.2958 60.0318C25.7821 59.3653 27.1859 59.4002 28.5071 60.1627C34.0512 63.2921 35.8548 78.1239 35.9288 78.7484C35.9535 78.9565 35.7961 79.1635 35.588 79.1882C35.3798 79.2129 35.1728 79.0556 35.1481 78.8474C35.1231 78.6912 33.2941 63.7813 28.1128 60.8362C27.0248 60.2052 25.881 60.1719 24.6033 60.7358C16.5463 64.3246 21.1366 82.5022 21.1874 82.6845C21.2381 82.8928 21.1068 83.1 20.9244 83.1509C20.8723 83.1765 20.8463 83.1764 20.8203 83.1762Z" fill="black"/>
<path d="M28.8631 81.8495C28.8371 81.8493 28.8111 81.8491 28.7851 81.849C28.5774 81.7956 28.4487 81.5868 28.5021 81.3792C28.5291 81.2233 32.0023 66.6071 28.1572 62.0585C27.3573 61.0914 26.268 60.6685 24.8894 60.7637C16.0716 61.3315 14.0808 79.9612 14.0795 80.1692C14.0522 80.3771 13.8692 80.5319 13.6612 80.5306C13.4533 80.5032 13.2985 80.3202 13.2998 80.1123C13.383 79.3068 15.374 60.6251 24.8422 60.0094C26.455 59.8897 27.7775 60.4441 28.7321 61.5942C32.8352 66.4564 29.3885 80.9948 29.2286 81.6178C29.1759 81.7214 29.0191 81.8505 28.8631 81.8495Z" fill="black"/>
<path d="M11.5833 76.0974C11.5833 76.0974 6.65895 89.9503 8.34012 99.5032C8.34012 99.5032 14.2894 104.351 29.2131 104.446C29.2131 104.446 35.5755 93.4106 33.6509 81.2561C33.6509 81.2561 24.7237 74.5171 11.5833 76.0974Z" fill="#426C89"/>
<path d="M15.8228 75.8642C26.6126 75.9329 33.6509 81.2561 33.6509 81.2561C35.5755 93.4106 29.2131 104.446 29.2131 104.446L29.135 104.446C14.2633 104.351 8.34012 99.5032 8.34012 99.5032C6.65895 89.9503 11.5833 76.0974 11.5833 76.0974C12.9883 75.9503 14.3929 75.8551 15.8228 75.8642ZM15.8278 75.0842C14.3718 75.0749 12.9412 75.1698 11.5101 75.3427C11.2239 75.3669 10.9626 75.5732 10.8828 75.8587C10.6711 76.4294 5.87859 89.9971 7.61109 99.6543C7.63593 99.8365 7.73893 99.9931 7.8941 100.124C8.15277 100.334 14.2063 105.13 29.182 105.226L29.26 105.226C29.546 105.228 29.807 105.074 29.9385 104.841C31.1752 102.535 32.1786 100.123 32.9225 97.6316C34.1698 93.6614 35.4567 87.5595 34.4577 81.131C34.433 80.9229 34.3301 80.7402 34.1488 80.635C33.8123 80.3989 26.7216 75.1536 15.8278 75.0842Z" fill="black"/>
<path d="M17.5045 81.2568C17.5045 81.2568 17.6709 95.9482 22.5836 104.326C22.5836 104.326 29.8479 106.816 43.8687 101.705C43.8687 101.705 46.0027 89.1606 39.9871 78.41C39.9871 78.41 29.2694 75.1957 17.5045 81.2568Z" fill="#D9CFFF"/>
<path d="M27.6474 105.32C24.3454 105.299 22.6069 104.742 22.4773 104.689C22.3994 104.662 22.3219 104.584 22.2704 104.506C17.3577 96.1281 17.1367 81.8524 17.1407 81.2284C17.1417 81.0724 17.2205 80.9429 17.351 80.8657C29.1158 74.8046 39.9899 77.9679 40.1197 77.9948C40.2236 78.0214 40.3011 78.0999 40.3526 78.1783C46.3683 88.9028 44.3114 101.604 44.2847 101.708C44.2579 101.838 44.1531 101.967 44.0227 102.018C36.6993 104.728 31.2353 105.343 27.6474 105.32ZM22.8457 103.989C23.8839 104.282 30.9715 105.939 43.5065 101.417C43.7515 99.7024 45.0454 88.4264 39.6989 78.7461C38.3751 78.3997 28.5356 76.1009 17.893 81.4932C17.9587 83.4177 18.4742 96.3692 22.8457 103.989Z" fill="black"/>
<path d="M9.92794 99.201C9.71994 99.1996 9.56494 99.0427 9.54027 98.8345C8.79492 89.3135 12.7099 78.8082 12.7626 78.7046C12.8678 78.5232 13.1024 78.4207 13.2837 78.5259C13.4392 78.6049 13.5421 78.7876 13.4889 78.9692C13.4363 79.0729 9.57424 89.4225 10.3207 98.7615C10.3454 98.9696 10.1881 99.1766 9.97994 99.2013L9.92794 99.201Z" fill="white"/>
<path d="M22.8927 84.385C23.2804 84.3875 23.5967 84.0752 23.5991 83.6875C23.6016 83.2998 23.2893 82.9835 22.9016 82.981C22.5139 82.9786 22.1976 83.2909 22.1952 83.6786C22.1927 84.0663 22.505 84.3826 22.8927 84.385Z" fill="#426C89"/>
<path d="M32.0574 90.58C32.4451 90.5825 32.7614 90.2702 32.7638 89.8825C32.7663 89.4948 32.454 89.1785 32.0663 89.1761C31.6786 89.1736 31.3623 89.4859 31.3599 89.8736C31.3574 90.2613 31.6697 90.5776 32.0574 90.58Z" fill="#426C89"/>
<path d="M32.7801 83.2521C33.1678 83.2546 33.4841 82.9423 33.4866 82.5546C33.4891 82.1669 33.1768 81.8506 32.7891 81.8481C32.4014 81.8456 32.0851 82.1579 32.0826 82.5456C32.0802 82.9333 32.3925 83.2496 32.7801 83.2521Z" fill="#426C89"/>
<path d="M28.1288 103.217C28.5165 103.219 28.8328 102.907 28.8353 102.519C28.8377 102.132 28.5254 101.815 28.1378 101.813C27.7501 101.811 27.4338 102.123 27.4313 102.511C27.4288 102.898 27.7411 103.214 28.1288 103.217Z" fill="#426C89"/>
<path d="M40.6019 100.255C40.9896 100.257 41.3059 99.9449 41.3084 99.5572C41.3109 99.1695 40.9986 98.8532 40.6109 98.8508C40.2232 98.8483 39.9069 99.1606 39.9044 99.5483C39.902 99.936 40.2142 100.252 40.6019 100.255Z" fill="#426C89"/>
<path d="M27.4487 95.6727C27.8364 95.6752 28.1527 95.3629 28.1552 94.9752C28.1577 94.5875 27.8454 94.2712 27.4577 94.2688C27.07 94.2663 26.7537 94.5786 26.7512 94.9663C26.7488 95.354 27.061 95.6702 27.4487 95.6727Z" fill="#426C89"/>
<path d="M38.9484 90.4416C39.336 90.4441 39.6523 90.1318 39.6548 89.7441C39.6573 89.3564 39.345 89.04 38.9573 89.0376C38.5696 89.0351 38.2533 89.3474 38.2508 89.7351C38.2484 90.1228 38.5607 90.4391 38.9484 90.4416Z" fill="#426C89"/>
<path d="M24.1031 102.542C23.9731 102.541 23.8436 102.462 23.7662 102.358C19.4202 94.8158 19.4889 84.026 19.4898 83.896C19.4911 83.688 19.6743 83.5071 19.8823 83.5085C20.0902 83.5098 20.2711 83.6929 20.2698 83.9009C20.2691 84.0049 20.2017 94.5867 24.4449 101.946C24.5477 102.129 24.4682 102.362 24.3116 102.465C24.2332 102.517 24.1551 102.542 24.1031 102.542Z" fill="white"/>
<path d="M2.05779 97.9547C1.87579 97.9535 1.72062 97.8225 1.66978 97.6402C-0.811233 87.1201 2.60813 80.9538 4.055 78.311C4.21265 78.052 4.34431 77.7928 4.4233 77.6373C4.52846 77.456 4.76311 77.3535 4.94445 77.4586C5.12578 77.5638 5.22829 77.7984 5.12313 77.9798C5.01781 78.1871 4.88632 78.4203 4.7285 78.7053C3.30829 81.2443 -0.00591147 87.2293 2.42493 97.463C2.4756 97.6713 2.34428 97.8785 2.13595 97.9292C2.10979 97.955 2.08379 97.9548 2.05779 97.9547Z" fill="black"/>
<path d="M142.393 22.9018C142.602 22.7211 142.837 22.5146 143.073 22.3081C142.347 22.0175 141.567 21.8825 140.787 21.9555C131.319 22.5712 129.328 41.2529 129.245 42.0584C129.217 42.2662 129.372 42.4752 129.606 42.4767C129.814 42.504 130.023 42.3493 130.024 42.1153C130.051 41.9335 132.042 23.3038 140.834 22.7098C141.38 22.7133 141.9 22.7686 142.393 22.9018Z" fill="black"/>
<path d="M145.359 26.6651C146.985 32.6296 144.473 43.2738 144.446 43.3776C144.393 43.5853 144.522 43.7941 144.729 43.8475C144.755 43.8476 144.781 43.8478 144.807 43.8479C144.989 43.8491 145.146 43.7201 145.199 43.5384C145.333 42.9933 148.005 31.6741 145.859 25.6543C145.701 26.0173 145.543 26.3283 145.359 26.6651Z" fill="black"/>
<path d="M142.288 23.0051C141.431 22.9217 140.546 23.072 139.763 23.4571C131.106 27.328 135.722 45.5318 135.925 46.3131C135.976 46.4954 136.132 46.6004 136.314 46.6015C136.34 46.6017 136.392 46.602 136.418 46.6022C136.626 46.5515 136.757 46.3444 136.707 46.136C136.656 45.9537 132.066 27.7761 140.123 24.1874C140.566 23.9822 141.035 23.8552 141.503 23.8062C141.713 23.5475 141.974 23.2892 142.288 23.0051Z" fill="black"/>
<path d="M151.396 42.1473C151.322 41.6009 149.963 30.386 145.991 25.3686C145.859 25.6278 145.754 25.8871 145.622 26.1463C149.282 31.1357 150.616 42.1164 150.642 42.2205C150.666 42.4287 150.873 42.586 151.082 42.5613C151.29 42.5367 151.447 42.3557 151.396 42.1473Z" fill="black"/>
<path d="M127.077 39.4968C127.077 39.4968 122.126 53.3495 123.834 62.9026C123.834 62.9026 129.783 67.7506 144.706 67.8457C144.706 67.8457 151.069 56.81 149.144 44.6555C149.144 44.6555 140.217 37.9165 127.077 39.4968Z" fill="#D9CFFF"/>
<path d="M144.626 68.2349C129.806 68.1405 123.83 63.4223 123.597 63.2128C123.52 63.1603 123.468 63.082 123.469 62.978C121.788 53.4251 126.528 39.961 126.74 39.3643C126.792 39.2347 126.923 39.1315 127.053 39.1063C140.193 37.526 149.303 44.2662 149.38 44.3187C149.458 44.3712 149.509 44.4755 149.535 44.5797C151.459 56.7342 145.122 67.9001 145.043 68.0296C144.964 68.1591 144.834 68.2102 144.704 68.2354L144.626 68.2349ZM124.199 62.6966C125.079 63.3262 131.137 67.3429 144.475 67.4539C145.291 65.9251 150.451 55.8178 148.779 44.8869C147.666 44.0998 139.225 38.5339 127.36 39.8883C126.751 41.6785 122.72 54.003 124.199 62.6966Z" fill="black"/>
<path d="M132.998 44.6562C132.998 44.6562 133.164 59.3476 138.077 67.7251C138.077 67.7251 145.341 70.2154 159.362 65.1046C159.362 65.1046 161.496 52.56 155.48 41.8094C155.48 41.8094 144.763 38.5951 132.998 44.6562Z" fill="#426C89"/>
<path d="M143.141 68.7193C139.839 68.6983 138.1 68.1412 137.971 68.0883C137.893 68.0618 137.815 67.9834 137.764 67.905C132.851 59.5275 132.63 45.2518 132.634 44.6279C132.635 44.4719 132.714 44.3423 132.844 44.2652C144.609 38.204 155.483 41.3674 155.613 41.3942C155.717 41.4209 155.794 41.4994 155.846 41.5777C161.862 52.3022 159.805 64.9774 159.778 65.1072C159.751 65.2371 159.646 65.3664 159.516 65.4176C152.193 68.127 146.729 68.7422 143.141 68.7193ZM138.339 67.3887C139.377 67.6813 146.465 69.3385 159 64.8163C159.245 63.1018 160.565 51.826 155.192 42.1455C153.869 41.7991 144.029 39.5004 133.386 44.8927C133.452 46.8171 133.968 59.7687 138.339 67.3887Z" fill="black"/>
<path d="M125.421 62.6003C125.213 62.5989 125.058 62.4419 125.034 62.2338C124.288 52.7128 128.203 42.2076 128.256 42.1039C128.309 41.8962 128.518 41.7676 128.726 41.8209C128.934 41.8742 129.062 42.083 129.009 42.2907C129.009 42.3167 128.983 42.3425 128.982 42.3685C128.93 42.4722 125.094 52.822 125.814 62.1608C125.839 62.3689 125.682 62.5759 125.448 62.5744L125.421 62.6003Z" fill="white"/>
<path d="M138.386 47.7844C138.774 47.7869 139.09 47.4746 139.093 47.0869C139.095 46.6992 138.783 46.3829 138.395 46.3804C138.007 46.378 137.691 46.6903 137.689 47.078C137.686 47.4657 137.998 47.782 138.386 47.7844Z" fill="#426C89"/>
<path d="M147.551 53.9795C147.939 53.9819 148.255 53.6696 148.257 53.2819C148.26 52.8942 147.948 52.5779 147.56 52.5755C147.172 52.573 146.856 52.8853 146.853 53.273C146.851 53.6607 147.163 53.977 147.551 53.9795Z" fill="#426C89"/>
<path d="M148.273 46.6515C148.661 46.654 148.977 46.3417 148.98 45.954C148.982 45.5663 148.67 45.25 148.282 45.2476C147.895 45.2451 147.578 45.5574 147.576 45.9451C147.573 46.3328 147.886 46.649 148.273 46.6515Z" fill="#426C89"/>
<path d="M143.622 66.6165C144.01 66.619 144.326 66.3067 144.329 65.919C144.331 65.5313 144.019 65.215 143.631 65.2126C143.244 65.2101 142.927 65.5224 142.925 65.9101C142.922 66.2978 143.235 66.6141 143.622 66.6165Z" fill="#426C89"/>
<path d="M156.069 63.6541C156.457 63.6566 156.773 63.3443 156.776 62.9566C156.778 62.5689 156.466 62.2526 156.078 62.2501C155.691 62.2477 155.374 62.56 155.372 62.9477C155.369 63.3354 155.682 63.6516 156.069 63.6541Z" fill="#426C89"/>
<path d="M142.942 59.0463C143.33 59.0488 143.646 58.7365 143.649 58.3488C143.651 57.9611 143.339 57.6448 142.951 57.6423C142.564 57.6398 142.247 57.9521 142.245 58.3398C142.242 58.7275 142.555 59.0438 142.942 59.0463Z" fill="#426C89"/>
<path d="M154.442 53.841C154.83 53.8435 155.146 53.5312 155.148 53.1435C155.151 52.7558 154.838 52.4395 154.451 52.437C154.063 52.4346 153.747 52.7469 153.744 53.1346C153.742 53.5222 154.054 53.8385 154.442 53.841Z" fill="#426C89"/>
<path d="M139.596 65.9412C139.466 65.9403 139.337 65.8615 139.26 65.757C134.914 58.2152 134.983 47.3994 134.983 47.2954C134.985 47.0874 135.142 46.9064 135.35 46.9077C135.35 46.9077 135.35 46.9077 135.376 46.9079C135.584 46.9092 135.764 47.0924 135.763 47.3004C135.762 47.4044 135.695 57.9861 139.938 65.3453C140.041 65.528 139.988 65.7617 139.805 65.8645C139.727 65.916 139.648 65.9415 139.596 65.9412Z" fill="white"/>
<path d="M140.59 48.8131C141.107 48.8164 141.528 48.4 141.532 47.8831C141.535 47.3662 141.119 46.9445 140.602 46.9412C140.085 46.9379 139.663 47.3543 139.66 47.8712C139.656 48.3881 140.073 48.8098 140.59 48.8131Z" fill="#59298F"/>
<path d="M152.54 46.2369C153.057 46.2402 153.479 45.8238 153.482 45.3069C153.485 44.7899 153.069 44.3682 152.552 44.3649C152.035 44.3616 151.614 44.778 151.61 45.2949C151.607 45.8119 152.023 46.2336 152.54 46.2369Z" fill="#59298F"/>
<path d="M147.406 52.2366C147.923 52.2399 148.344 51.8235 148.348 51.3066C148.351 50.7897 147.935 50.3679 147.418 50.3646C146.901 50.3613 146.479 50.7777 146.476 51.2947C146.472 51.8116 146.889 52.2333 147.406 52.2366Z" fill="#59298F"/>
<path d="M156.402 60.4057C156.919 60.409 157.341 59.9926 157.344 59.4757C157.347 58.9588 156.931 58.5371 156.414 58.5338C155.897 58.5305 155.475 58.9468 155.472 59.4638C155.469 59.9807 155.885 60.4024 156.402 60.4057Z" fill="#59298F"/>
<path d="M142.266 59.1457C142.783 59.149 143.204 58.7326 143.208 58.2157C143.211 57.6987 142.795 57.277 142.278 57.2737C141.761 57.2704 141.339 57.6868 141.336 58.2037C141.332 58.7207 141.749 59.1424 142.266 59.1457Z" fill="#59298F"/>
<path d="M148.253 66.1524C148.77 66.1557 149.192 65.7393 149.195 65.2224C149.198 64.7055 148.782 64.2838 148.265 64.2805C147.748 64.2772 147.327 64.6936 147.323 65.2105C147.32 65.7274 147.736 66.1491 148.253 66.1524Z" fill="#59298F"/>
<path d="M152.63 52.6337C152.422 52.6324 152.241 52.4492 152.242 52.2412C152.243 52.0852 152.348 51.9299 152.504 51.8789C161.233 49.0225 168.937 43.6895 174.702 36.55C179.027 31.1695 180.746 26.6044 180.772 26.5525C180.852 26.345 181.086 26.2685 181.294 26.3478C181.475 26.427 181.552 26.6355 181.499 26.8172C181.419 26.9987 179.7 31.5378 175.297 37.0218C169.453 44.2908 161.618 49.7009 152.76 52.6085C152.708 52.6342 152.682 52.6341 152.63 52.6337Z" fill="black"/>
<path d="M157.291 55.5235C157.083 55.5222 156.902 55.365 156.877 55.1569C156.879 54.9489 157.036 54.7679 157.244 54.7432C175.535 52.8317 180.619 42.4899 180.671 42.3863C180.751 42.1788 180.985 42.1023 181.192 42.1816C181.4 42.2609 181.477 42.4954 181.397 42.7029L181.397 42.7289C181.344 42.8326 180.079 45.5026 176.447 48.4175C173.128 51.1004 167.126 54.5202 157.343 55.5239L157.291 55.5235Z" fill="black"/>
<path d="M19.0801 70.633C19.0801 70.633 15.1076 69.7496 15.2391 65.4344C15.3706 61.1191 16.8518 57.1765 19.851 55.7396C22.8502 54.3026 25.3147 55.1764 26.5537 56.5883C27.7928 58.0002 27.339 59.8434 25.2514 61.0261C25.2514 61.0261 26.8973 63.8706 23.1411 65.7707C23.1411 65.7707 23.9662 70.9501 19.6622 69.0506L19.0801 70.633Z" fill="#FFCDB2"/>
<path d="M22.8718 55.0052C24.2759 54.9881 25.5982 55.5686 26.5277 56.5885C27.7668 58.0004 27.313 59.8436 25.2254 61.0263C25.2254 61.0263 26.8713 63.8708 23.1152 65.7709C23.1152 65.7709 23.7156 69.4668 21.2717 69.4513C20.6999 69.4216 20.1547 69.2881 19.6364 69.0248L19.0543 70.6071C19.0543 70.6071 15.0818 69.7238 15.2133 65.4086C15.3448 61.0933 16.826 57.1507 19.8252 55.7138C20.7641 55.2517 21.8056 55.0244 22.8718 55.0052ZM22.8767 54.2252C21.7066 54.2437 20.5608 54.5224 19.5175 55.0358C16.5183 56.4727 14.6215 60.3607 14.4593 65.4038C14.2854 68.2107 16.1675 70.7188 18.9193 71.3863C18.9713 71.3866 19.0231 71.413 19.0751 71.4133C19.4131 71.4155 19.7004 71.2093 19.8064 70.8979L20.1239 70.042C20.5131 70.1744 20.9027 70.2289 21.2927 70.2314C22.0205 70.262 22.6985 69.9544 23.17 69.4114C23.9819 68.4805 24.0174 66.9987 23.9445 66.1922C25.1451 65.4719 25.9047 64.5927 26.2234 63.5547C26.436 62.828 26.415 62.0479 26.1854 61.3444C27.1781 60.6227 27.7817 59.7426 27.944 58.7556C28.0803 57.7684 27.7746 56.7784 27.103 56.0722C26.0187 54.8692 24.4889 54.2095 22.8767 54.2252Z" fill="black"/>
<path d="M23.1387 66.1612C23.0347 66.1606 22.931 66.1079 22.8535 66.0294C21.0973 64.1722 18.3934 64.155 18.3414 64.1546C18.1334 64.1533 17.9525 63.9702 17.9539 63.7622C17.9552 63.5542 18.1383 63.3733 18.3463 63.3747C18.4763 63.3755 21.4143 63.3942 23.403 65.4869C23.558 65.6439 23.5565 65.8779 23.3995 66.0329C23.3468 66.1366 23.2427 66.1619 23.1387 66.1612Z" fill="black"/>
<path d="M25.3524 61.4953C25.2484 61.4947 25.1706 61.4682 25.0931 61.3897C22.2489 58.9015 20.2151 59.7986 20.1368 59.8501C19.9541 59.9529 19.7208 59.8474 19.618 59.6648C19.5151 59.4821 19.6206 59.2488 19.8033 59.1459C19.9076 59.0946 22.3588 57.9662 25.6167 60.821C25.7719 60.952 25.7962 61.2122 25.6392 61.3672C25.5868 61.4448 25.4564 61.496 25.3524 61.4953Z" fill="black"/>
<path d="M18.6392 58.2027C18.5352 58.202 18.4055 58.1492 18.3279 58.0967C18.095 57.9132 18.071 57.6011 18.2545 57.3682C18.333 57.2907 19.8792 55.3765 22.2727 55.1578C23.7815 55.0374 25.2859 55.593 26.7338 56.8762C26.9405 57.0856 26.9383 57.4236 26.7292 57.6042C26.546 57.7851 26.2598 57.8092 26.0528 57.6519C24.8377 56.5781 23.6187 56.1024 22.396 56.1986C20.4449 56.3682 19.1085 57.9977 19.0823 58.0235C18.9515 58.1527 18.7952 58.2037 18.6392 58.2027Z" fill="white"/>
<path d="M45.317 98.8289L74.2245 107.801L77.2458 119.209L167.75 119.786L154.563 161.328C153.634 164.26 150.802 168.091 147.733 168.175L92.7189 167.746C89.4943 167.83 86.6213 165.784 85.6528 162.709L69.5442 111.906L45.2808 104.523L45.317 98.8289Z" fill="#D9CFFF"/>
<path d="M147.731 168.565L92.7164 168.136C89.3358 168.219 86.3076 166.042 85.288 162.837L69.2561 112.242L45.2003 104.912C45.0447 104.859 44.9157 104.703 44.9167 104.547L44.9529 98.8527C44.9543 98.6447 45.1374 98.4639 45.3454 98.4652C45.3714 98.4654 45.4234 98.4657 45.4492 98.4919L74.3567 107.464C74.4865 107.491 74.5898 107.596 74.615 107.726L77.5602 118.847L167.778 119.422C167.986 119.423 168.167 119.606 168.166 119.814C168.166 119.866 168.165 119.892 168.139 119.918L154.926 161.435C154.024 164.263 151.137 168.483 147.731 168.565ZM92.7214 167.357L147.736 167.785C150.726 167.7 153.351 163.817 154.2 161.196L167.254 120.146L77.2696 119.573C77.0876 119.572 76.9324 119.441 76.9074 119.285L73.9367 108.086L45.7299 99.3257L45.6988 104.214L69.6768 111.517C69.8066 111.543 69.9099 111.648 69.9351 111.778L86.0437 162.582C86.9613 165.474 89.679 167.415 92.7214 167.357Z" fill="black"/>
<path d="M99.1924 167.84C99.0624 167.839 98.9329 167.76 98.8556 167.656C88.2775 150.688 87.2244 120.105 87.2004 119.793C87.2017 119.585 87.3589 119.404 87.567 119.379C87.7752 119.354 87.956 119.538 87.9807 119.746C87.9787 120.058 89.0592 150.433 99.5084 167.218C99.6112 167.401 99.5837 167.634 99.4009 167.763C99.3486 167.815 99.2704 167.841 99.1924 167.84Z" fill="black"/>
<path d="M139.154 167.991C138.946 167.989 138.765 167.806 138.767 167.598C138.767 167.52 138.794 167.442 138.82 167.39C150.689 149.058 151.289 120.201 151.291 119.915C151.292 119.707 151.475 119.526 151.683 119.527C151.891 119.529 152.072 119.712 152.071 119.92C152.069 120.206 151.468 149.297 139.467 167.81C139.389 167.914 139.284 167.991 139.154 167.991Z" fill="black"/>
<path d="M119.892 167.451C119.71 167.45 119.554 167.345 119.529 167.163C115.766 153.853 119.773 120.78 119.827 120.468C119.854 120.26 120.037 120.105 120.271 120.133C120.479 120.16 120.634 120.343 120.606 120.577C120.578 120.915 116.572 153.832 120.311 166.986C120.361 167.194 120.256 167.402 120.047 167.478C119.97 167.452 119.918 167.451 119.892 167.451Z" fill="black"/>
<path d="M97.5061 191.724C101.498 191.749 104.755 188.534 104.78 184.542C104.805 180.55 101.59 177.293 97.5982 177.268C93.6064 177.243 90.3497 180.458 90.3243 184.45C90.2989 188.442 93.5143 191.698 97.5061 191.724Z" fill="#D9CFFF"/>
<path d="M97.5036 192.14C93.2917 192.113 89.8815 188.685 89.9085 184.447C89.9353 180.235 93.363 176.851 97.6009 176.878C101.813 176.905 105.223 180.333 105.196 184.571C105.143 188.756 101.716 192.14 97.5036 192.14ZM97.5959 177.658C93.8 177.634 90.7125 180.682 90.6885 184.452C90.6643 188.248 93.7127 191.335 97.5086 191.36C101.305 191.384 104.392 188.335 104.416 184.54C104.414 180.769 101.366 177.682 97.5959 177.658Z" fill="black"/>
<path d="M142.485 192.01C146.477 192.036 149.734 188.82 149.759 184.829C149.785 180.837 146.569 177.58 142.577 177.555C138.585 177.529 135.329 180.745 135.303 184.736C135.278 188.728 138.493 191.985 142.485 192.01Z" fill="#D9CFFF"/>
<path d="M142.483 192.426C138.271 192.399 134.887 188.946 134.913 184.734C134.94 180.522 138.394 177.138 142.606 177.165C146.818 177.192 150.202 180.619 150.175 184.857C150.148 189.043 146.695 192.427 142.483 192.426ZM142.575 177.945C138.779 177.92 135.717 180.969 135.693 184.765C135.669 188.561 138.718 191.622 142.513 191.646C146.283 191.67 149.371 188.622 149.395 184.826C149.419 181.056 146.371 177.969 142.575 177.945Z" fill="black"/>
<path d="M90.4878 171.06L150.365 171.442C150.989 171.446 151.505 171.969 151.501 172.593L151.494 173.711C151.49 174.335 150.967 174.852 150.343 174.848L90.4661 174.466C89.8421 174.462 89.3254 173.939 89.3294 173.315L89.3365 172.197C89.3405 171.573 89.8638 171.056 90.4878 171.06Z" fill="#D9CFFF"/>
<path d="M150.315 175.212L90.4637 174.83C89.6318 174.825 88.9341 174.144 88.9395 173.286L88.9467 172.168C88.952 171.336 89.6324 170.639 90.4904 170.644L150.367 171.026C151.199 171.031 151.897 171.712 151.891 172.57L151.884 173.688C151.853 174.545 151.172 175.217 150.315 175.212ZM90.4853 171.45C90.0693 171.448 89.7291 171.783 89.7265 172.199L89.7194 173.317C89.7167 173.733 90.0526 174.074 90.4685 174.076L150.345 174.458C150.761 174.46 151.101 174.125 151.104 173.709L151.111 172.591C151.114 172.175 150.778 171.834 150.362 171.832L90.4853 171.45Z" fill="black"/>
<path d="M106.163 171.55C105.955 171.549 105.774 171.366 105.776 171.158L105.797 167.856C105.798 167.648 105.981 167.467 106.189 167.468C106.397 167.47 106.578 167.653 106.577 167.861L106.556 171.163C106.554 171.371 106.371 171.551 106.163 171.55Z" fill="black"/>
<path d="M130.498 171.705C130.29 171.704 130.109 171.521 130.111 171.313L130.132 168.063C130.133 167.855 130.316 167.674 130.524 167.675C130.732 167.677 130.913 167.86 130.912 168.068L130.891 171.318C130.889 171.526 130.706 171.707 130.498 171.705Z" fill="black"/>
<path d="M142.414 186.861C143.563 186.869 144.5 185.943 144.507 184.795C144.515 183.646 143.589 182.709 142.441 182.701C141.292 182.694 140.355 183.619 140.347 184.768C140.34 185.917 141.265 186.854 142.414 186.861Z" fill="white"/>
<path d="M142.412 187.251C141.06 187.243 139.949 186.118 139.957 184.766C139.966 183.414 141.091 182.303 142.443 182.312C143.795 182.32 144.906 183.445 144.897 184.797C144.889 186.149 143.764 187.26 142.412 187.251ZM142.438 183.092C141.502 183.086 140.743 183.835 140.737 184.771C140.731 185.707 141.481 186.466 142.417 186.471C143.353 186.477 144.111 185.728 144.117 184.792C144.123 183.856 143.374 183.097 142.438 183.092Z" fill="black"/>
<path d="M97.4351 186.575C98.5838 186.582 99.5209 185.657 99.5283 184.508C99.5356 183.359 98.6103 182.422 97.4616 182.415C96.3128 182.408 95.3757 183.333 95.3683 184.482C95.361 185.63 96.2863 186.567 97.4351 186.575Z" fill="white"/>
<path d="M97.4326 186.965C96.0807 186.956 94.9698 185.831 94.9784 184.479C94.987 183.127 96.1121 182.016 97.4641 182.025C98.8161 182.034 99.9269 183.159 99.9183 184.511C99.9097 185.863 98.7846 186.973 97.4326 186.965ZM97.4591 182.805C96.5232 182.799 95.7644 183.548 95.7584 184.484C95.7524 185.42 96.5016 186.179 97.4376 186.185C98.3736 186.191 99.1324 185.442 99.1383 184.506C99.1443 183.57 98.3951 182.811 97.4591 182.805Z" fill="black"/>
<path d="M95.7535 164.854C95.6235 164.853 95.494 164.774 95.4166 164.669C85.6958 147.811 85.4814 124.331 85.4829 124.097C85.4843 123.889 85.6674 123.709 85.8754 123.71C86.0834 123.711 86.2642 123.894 86.2629 124.102C86.2614 124.336 86.4771 147.608 96.0951 164.284C96.1979 164.466 96.1444 164.7 95.9616 164.829C95.8836 164.828 95.8315 164.854 95.7535 164.854Z" fill="white"/>
<path d="M142.552 165.152C142.344 165.151 142.164 164.968 142.165 164.76C142.165 164.682 142.192 164.604 142.244 164.552C153.847 147.258 153.099 125.802 153.101 125.594C153.102 125.386 153.259 125.205 153.467 125.181C153.676 125.156 153.856 125.339 153.881 125.547C153.88 125.755 154.651 147.471 142.892 164.972C142.813 165.076 142.682 165.153 142.552 165.152Z" fill="white"/>
<path d="M121.233 165.017C121.051 165.015 120.896 164.884 120.845 164.702C118.087 152.802 121.063 126.353 121.091 126.093C121.118 125.885 121.301 125.73 121.535 125.758C121.743 125.785 121.898 125.968 121.87 126.202C121.842 126.462 118.893 152.781 121.626 164.551C121.676 164.759 121.545 164.967 121.337 165.017C121.311 165.017 121.259 165.017 121.233 165.017Z" fill="white"/>
</svg>
