<svg width="230" height="228" viewBox="0 0 230 228" fill="none" xmlns="http://www.w3.org/2000/svg">
<path d="M218.217 213.441L17.2967 213.468C16.921 213.471 16.5971 213.151 16.5949 212.775C16.5927 212.399 16.9128 212.075 17.2885 212.073L218.209 212.045C218.584 212.043 218.908 212.363 218.91 212.739C218.913 213.114 218.592 213.438 218.217 213.441Z" fill="black"/>
<path d="M34.7978 175.032C36.3274 196.258 40.4064 211.796 40.4332 211.957L203.19 211.77C203.244 211.609 207.323 196.393 209.013 175.971C210.006 163.976 209.979 152.544 208.933 142.024C207.618 128.848 204.72 117.068 200.292 106.951C195.301 95.5455 183.735 85.831 166.855 78.9343L71.1601 77.2703C57.8765 82.9862 48.8867 91.2246 44.4588 101.798C39.8162 112.854 36.7033 125.52 35.2273 139.448C34.0465 150.585 33.8855 162.553 34.7978 175.032Z" fill="#426C89"/>
<path d="M103.085 153.093C103.085 153.093 99.7933 159.231 95.8827 155.926C91.972 152.622 83.6642 145.425 78.0881 150.959C72.512 156.493 72.6289 158.129 67.6237 155.797C62.6186 153.465 46.9624 165.311 58.6423 175.494C77.7939 192.181 112.518 164.577 112.518 164.577L110.045 159.305L103.085 153.093Z" fill="#426C89"/>
<path d="M74.053 181.254C67.8541 181.29 62.5836 179.47 58.3756 175.791C53.6282 171.659 52.7121 166.485 55.8504 161.663C58.7759 157.164 64.7954 154.016 67.7825 155.421C71.5769 157.223 72.057 156.711 75.1771 153.365C75.9239 152.582 76.7506 151.692 77.7911 150.666C83.554 144.943 91.9418 152.058 95.9874 155.496L96.1492 155.63C97.0122 156.349 97.8995 156.639 98.7841 156.473C101.036 156.03 102.708 152.961 102.735 152.907L102.974 152.45L110.392 159.061L113.029 164.681L112.788 164.871C112.708 164.952 103.947 171.873 92.9451 176.634C86.4673 179.436 80.4921 181.001 75.1798 181.193C74.7776 181.249 74.4019 181.252 74.053 181.254ZM66.0677 155.887C63.3306 155.903 58.9705 158.317 56.5238 162.089C54.8217 164.702 52.8395 169.893 58.8818 175.171C68.6194 183.647 82.5542 180.264 92.5652 175.912C102.442 171.614 110.484 165.582 112.007 164.446L109.698 159.549L103.169 153.71C102.584 154.653 101.014 156.835 98.9227 157.223C97.7701 157.445 96.6678 157.103 95.616 156.223L95.4542 156.09C91.5974 152.812 83.5872 146.016 78.358 151.226C77.3174 152.252 76.4907 153.142 75.7706 153.898C72.6238 157.271 71.7703 158.161 67.4377 156.121C67.0074 155.962 66.5507 155.884 66.0677 155.887Z" fill="black"/>
<path d="M72.0379 212.771C72.0379 212.771 66.2056 161.065 117.847 162.56C186.156 164.546 163.867 212.231 163.867 212.231L72.0379 212.771Z" fill="#EA6C56"/>
<path d="M164.192 212.765L71.5579 213.31L71.5014 212.828C71.126 208.321 71.2604 203.785 71.9049 199.3C72.8832 192.263 75.5347 182.238 82.7078 174.467C90.7075 165.779 102.518 161.603 117.87 162.05C141.302 162.717 156.742 168.825 163.732 180.189C168.365 187.676 168.28 196.076 167.402 201.797C166.86 205.477 165.834 209.079 164.352 212.496L164.192 212.765ZM72.5177 212.231L163.488 211.696C164.494 209.302 170.707 193.539 162.796 180.705C155.995 169.688 140.852 163.739 117.823 163.097C102.819 162.648 91.2765 166.715 83.4901 175.16C71.2241 188.489 72.2563 208.851 72.5177 212.231Z" fill="#1D1D1B"/>
<path d="M149.927 169.026C149.927 169.026 171.685 177.164 175.274 198.88C180.562 230.944 152.213 229.206 145.386 222.939C138.56 216.673 125.592 206.391 124.425 199.635C123.258 192.879 127.7 190.814 127.7 190.814L125.793 185.968L140.896 175.896L142.873 178.809C142.873 178.809 149.787 177.239 152.692 182.911C155.597 188.583 158.807 196.051 160.785 199.233" fill="#EA6C56"/>
<path d="M157.513 227.001C152.281 227.032 147.413 225.37 145.093 223.236C143.96 222.196 142.638 221.023 141.235 219.797C134.006 213.399 124.996 205.455 123.996 199.691C122.968 193.82 126.12 191.306 127.19 190.629L125.419 186.104C125.337 185.916 125.416 185.728 125.577 185.62L140.68 175.548C140.867 175.413 141.109 175.465 141.244 175.652L143.058 178.352C144.398 178.129 150.379 177.504 153.04 182.721C154.234 185.049 155.484 187.671 156.68 190.214C158.365 193.8 159.968 197.172 161.106 199.044C161.214 199.231 161.135 199.473 160.948 199.581C160.761 199.69 160.546 199.637 160.411 199.45C159.245 197.552 157.642 194.153 155.93 190.567C154.735 188.051 153.512 185.429 152.317 183.101C149.602 177.777 143.009 179.184 142.956 179.211C142.795 179.239 142.633 179.186 142.525 179.053L140.793 176.46L126.304 186.125L128.075 190.677C128.157 190.865 128.051 191.107 127.864 191.188C127.703 191.27 123.689 193.199 124.8 199.552C125.772 205.048 135.024 213.232 141.769 219.204C143.171 220.43 144.493 221.603 145.626 222.643C149.188 225.923 159.183 228.064 166.7 223.995C171.837 221.227 177.406 214.62 174.845 198.963C173.036 187.89 166.31 180.442 160.998 176.18C155.228 171.518 149.822 169.456 149.768 169.457C149.553 169.377 149.471 169.136 149.55 168.921C149.63 168.733 149.844 168.624 150.059 168.703C150.113 168.73 155.626 170.818 161.505 175.56C166.924 179.929 173.785 187.537 175.65 198.877C178.294 214.99 172.457 221.841 167.107 224.744C164.111 226.291 160.734 226.982 157.513 227.001Z" fill="#1D1D1B"/>
<path d="M128.157 190.945C128.157 190.945 139.635 189.563 142.66 179.106L140.818 176.165L126.331 186.045L128.157 190.945Z" fill="#E89D00"/>
<path d="M95.0847 166.263C95.0847 166.263 72.0406 176.73 70.1001 198.13C67.1506 230.484 94.7592 229.544 101.538 223.197C108.317 216.851 121.11 206.417 122.224 199.648C123.338 192.879 118.845 190.866 118.845 190.866L120.695 185.998L105.448 176.104L103.506 179.041C103.506 179.041 96.5734 177.552 93.7355 183.258C90.8977 188.964 87.7752 196.469 85.835 199.674" fill="#EA6C56"/>
<path d="M90.4778 227.1C87.1504 227.146 83.8723 226.441 80.8583 225.01C76.9828 223.127 74.04 220.112 72.1107 216.044C69.8555 211.308 69.0417 205.274 69.6971 198.078C70.7049 186.909 77.5268 178.737 83.053 173.848C86.6305 170.687 90.6131 167.98 94.9212 165.861C95.1084 165.753 95.3504 165.832 95.4588 166.019C95.5673 166.206 95.4882 166.448 95.301 166.557C95.2741 166.557 95.2743 166.584 95.2475 166.584C91.0197 168.675 87.0904 171.328 83.5664 174.435C78.1468 179.217 71.4848 187.199 70.5024 198.101C68.9897 214.667 75.497 221.445 81.2026 224.229C89.0612 228.074 98.0381 225.848 101.241 222.823C102.362 221.77 103.67 220.582 105.058 219.339C111.758 213.289 120.914 205.023 121.821 199.489C122.856 193.096 118.712 191.162 118.659 191.162C118.47 191.083 118.362 190.842 118.441 190.653L120.158 186.081L105.558 176.667L103.856 179.253C103.776 179.388 103.589 179.47 103.427 179.417C103.159 179.365 96.7641 178.061 94.112 183.417C92.945 185.758 91.7528 188.368 90.587 190.925C88.9177 194.557 87.3545 197.975 86.2117 199.86C86.1054 200.048 85.8644 200.13 85.6759 200.024C85.4874 199.918 85.4055 199.677 85.5118 199.488C85.5118 199.488 85.5116 199.461 85.5384 199.461C86.6546 197.603 88.218 194.213 89.8874 190.607C91.0532 188.05 92.2721 185.413 93.4391 183.072C96.065 177.823 102.026 178.379 103.369 178.585L105.151 175.865C105.284 175.676 105.525 175.621 105.714 175.754L120.934 185.647C121.096 185.754 121.151 185.941 121.098 186.129L119.38 190.675C120.458 191.339 123.639 193.789 122.681 199.699C121.749 205.474 112.833 213.524 105.679 220.006C104.291 221.249 103.01 222.437 101.862 223.491C99.4861 225.652 95.1739 227.072 90.4778 227.1Z" fill="#1D1D1B"/>
<path d="M118.363 191.003C118.363 191.003 106.87 189.755 103.722 179.335L105.556 176.372L120.159 186.081L118.363 191.003Z" fill="#E89D00"/>
<path d="M110.595 129.702C110.354 129.703 110.138 129.543 110.083 129.302C108.244 122.282 115.202 118.967 115.282 118.94C115.55 118.804 115.872 118.936 116.008 119.204C116.144 119.471 116.012 119.794 115.744 119.903C115.476 120.012 109.535 122.865 111.128 129.001C111.21 129.295 111.024 129.592 110.756 129.647C110.703 129.674 110.649 129.701 110.595 129.702Z" fill="#1D1D1B"/>
<path d="M123.392 142.615C129.26 142.58 133.99 137.795 133.956 131.926C133.921 126.057 129.135 121.327 123.267 121.362C117.398 121.396 112.668 126.182 112.702 132.051C112.737 137.92 117.523 142.649 123.392 142.615Z" fill="#426C89"/>
<path d="M123.394 143.017L123.233 143.018C117.141 143.001 112.228 138.065 112.219 132C112.237 125.908 117.173 120.995 123.264 120.986L123.425 120.985C129.517 121.003 134.43 125.939 134.439 132.03C134.421 138.095 129.486 143.035 123.394 143.017ZM123.269 121.791C117.633 121.77 113.045 126.36 113.051 131.995C113.03 137.631 117.619 142.22 123.255 142.213L123.416 142.212C128.997 142.153 133.506 137.671 133.554 132.089C133.601 126.453 129.066 121.837 123.43 121.79L123.269 121.791Z" fill="#1D1E1B"/>
<path d="M133.902 136.435C129.616 128.677 117.656 130.224 114.617 133.596C107.072 141.986 99.7216 137.924 98.3257 146.976C97.6278 151.515 101.637 153.289 99.7535 161.593C98.759 165.892 105.99 172.505 112.565 172.574C119.14 172.642 141.524 173.074 143.374 168.26C145.224 163.445 152.557 155.432 146.599 146.209C140.586 136.878 135.773 139.805 133.902 136.435Z" fill="#426C89"/>
<path d="M119.089 172.991C117.21 173.002 115.332 172.987 113.48 172.971L112.594 172.949C107.978 172.896 103.478 169.836 101.234 166.978C99.6931 165.028 99.0644 163.073 99.4308 161.487C100.53 156.677 99.6292 154.16 98.8109 151.91C98.2382 150.357 97.7195 148.857 98.0031 146.897C98.8042 141.659 101.562 140.596 105.07 139.261C107.881 138.198 111.094 136.971 114.374 133.302C116.267 131.225 120.875 130.017 125.091 130.502C129.281 130.987 132.54 133.007 134.303 136.19C134.927 137.341 135.948 137.657 137.373 138.131C139.82 138.922 143.181 140.029 147 145.938C151.821 153.423 148.156 160.073 145.501 164.946C144.864 166.05 144.307 167.181 143.804 168.338C142.323 172.103 130.708 172.923 119.089 172.991ZM123.029 131.238C119.407 131.26 116.194 132.486 114.941 133.889C111.501 137.693 108.074 139.001 105.316 140.064C101.942 141.345 99.4789 142.299 98.7555 147.053C98.4974 148.799 98.9615 150.138 99.5072 151.665C100.353 154.021 101.308 156.672 100.157 161.698C99.8424 163.041 100.443 164.755 101.822 166.518C103.958 169.216 108.215 172.143 112.563 172.171L113.448 172.193C120.346 172.259 141.306 172.485 142.971 168.128C143.474 166.917 144.057 165.76 144.721 164.629C147.297 159.944 150.828 153.51 146.251 146.452C142.595 140.784 139.396 139.73 137.057 138.992C135.578 138.518 134.314 138.096 133.527 136.678C131.9 133.736 128.856 131.848 124.936 131.388C124.318 131.258 123.673 131.235 123.029 131.238Z" fill="#1D1E1B"/>
<path d="M127.002 154.133C121.586 154.997 114.485 152.301 113.128 154.134C111.77 155.967 112.617 158.592 115.466 159.38C118.316 160.168 121.214 160.232 127.144 160.036C133.073 159.84 138.867 159.269 138.338 156.079C137.809 152.889 134.964 152.852 127.002 154.133Z" fill="#FFB49F"/>
<path d="M123.985 138.506C121.807 146.891 113.322 150.671 108.681 151.047C107.65 153.603 108.126 157.062 108.117 160.068C108.021 171.125 113.973 179.167 124.596 178.541C134.978 177.917 140.471 172.034 140.453 159.851C140.436 156.979 140.581 154.134 139.68 151.643C130.878 151.561 123.985 138.506 123.985 138.506Z" fill="#FFCDB2"/>
<path d="M123.579 179.003C119.419 179.028 115.815 177.68 113.117 175.093C109.581 171.732 107.672 166.403 107.715 160.07C107.71 159.318 107.706 158.54 107.674 157.762C107.607 155.374 107.511 152.879 108.332 150.888L108.438 150.673L108.679 150.645C113.668 150.24 121.615 146.168 123.635 138.4L123.898 137.406L124.386 138.315C124.467 138.449 131.278 151.156 139.732 151.267L140 151.266L140.082 151.533C140.901 153.783 140.889 156.359 140.877 158.855C140.879 159.204 140.881 159.526 140.883 159.875C140.892 165.966 139.497 170.671 136.752 173.827C134.059 176.929 129.99 178.643 124.625 178.97C124.277 178.999 123.928 179.001 123.579 179.003ZM108.979 151.448C108.319 153.25 108.413 155.53 108.479 157.757C108.511 158.535 108.542 159.34 108.52 160.092C108.475 166.211 110.304 171.326 113.65 174.526C116.43 177.167 120.194 178.433 124.567 178.165C134.975 177.541 140.039 171.553 140.024 159.88C140.022 159.531 140.02 159.182 140.018 158.86C140.031 156.418 140.044 154.137 139.361 152.074C131.791 151.743 125.779 142.44 124.071 139.551C121.568 147.349 113.699 150.937 108.979 151.448Z" fill="#1D1D1B"/>
<path d="M125.905 154.783C119.444 155.895 110.946 152.725 109.375 154.961C107.805 157.198 108.79 160.305 112.23 161.197C115.67 162.089 119.105 162.123 126.162 161.867C133.218 161.61 140.11 160.792 139.47 157.012C138.831 153.231 135.369 153.144 125.905 154.783Z" fill="#FFB49F"/>
<path d="M123.897 164.617C123.682 164.618 123.493 164.432 123.492 164.217L123.575 155.522C123.574 155.307 123.76 155.118 123.975 155.117C124.19 155.116 124.379 155.302 124.38 155.517L124.297 164.212C124.298 164.427 124.138 164.616 123.897 164.617Z" fill="black"/>
<path d="M116.04 129.106C115.959 129.107 115.852 129.08 115.771 129.054C115.448 128.895 115.285 128.493 115.444 128.17C115.523 127.982 117.723 123.326 123.732 122.996C124.108 122.967 124.432 123.26 124.434 123.636C124.436 124.012 124.17 124.335 123.794 124.337C118.616 124.636 116.734 128.565 116.655 128.754C116.549 128.969 116.308 129.131 116.04 129.106Z" fill="#DFDFDF"/>
<path d="M122.556 169.321C122.18 169.324 121.804 169.272 121.455 169.194C119.278 168.616 118.057 166.45 118.003 166.343C117.895 166.155 117.947 165.914 118.134 165.778C118.321 165.67 118.563 165.722 118.698 165.909L118.698 165.936C118.725 165.963 119.81 167.888 121.665 168.387C122.659 168.65 123.678 168.456 124.747 167.806C124.935 167.697 125.176 167.75 125.312 167.937C125.447 168.124 125.368 168.366 125.181 168.501C124.379 169.016 123.495 169.289 122.556 169.321Z" fill="black"/>
<path d="M120.366 157.473C120.259 157.474 120.178 157.447 120.097 157.367C116.239 153.955 111.99 157.012 111.937 157.039C111.75 157.148 111.508 157.096 111.373 156.909C111.264 156.748 111.29 156.507 111.45 156.398C111.504 156.371 116.26 152.935 120.603 156.774C120.765 156.907 120.794 157.175 120.634 157.337C120.58 157.418 120.473 157.472 120.366 157.473Z" fill="black"/>
<path d="M126.965 157.032C126.75 157.033 126.561 156.846 126.56 156.631C126.559 156.497 126.639 156.363 126.773 156.281C127.013 156.146 132.791 152.865 137.075 155.818C137.263 155.924 137.319 156.192 137.212 156.381C137.106 156.569 136.838 156.625 136.65 156.518C136.623 156.519 136.623 156.492 136.596 156.492C132.716 153.804 127.206 156.95 127.153 156.977C127.099 157.004 127.019 157.031 126.965 157.032Z" fill="black"/>
<path d="M112.479 148.878C112.372 148.879 112.291 148.852 112.211 148.799C112.049 148.666 112.02 148.398 112.154 148.236C112.314 148.047 115.858 143.867 120.079 145.157C120.294 145.209 120.429 145.423 120.35 145.638C120.271 145.853 120.084 145.989 119.869 145.909L119.842 145.91C116.132 144.777 112.8 148.688 112.774 148.742C112.721 148.823 112.614 148.877 112.479 148.878Z" fill="black"/>
<path d="M133.891 148.35C133.811 148.35 133.703 148.324 133.649 148.271C130.199 145.607 127.124 147.504 127.097 147.504C126.91 147.639 126.668 147.587 126.533 147.4C126.397 147.213 126.45 146.971 126.637 146.836L126.663 146.809C126.69 146.782 130.22 144.614 134.128 147.624C134.317 147.757 134.346 148.025 134.212 148.187C134.132 148.268 134.025 148.349 133.891 148.35Z" fill="black"/>
<path d="M122.711 182.014C122.711 182.014 119.655 187.158 113.685 184.965C107.714 182.773 102.915 178.91 102.296 174.03C101.676 169.149 104.047 166.156 106.59 165.095C109.134 164.033 111.477 165.495 112.195 168.953C112.195 168.953 116.912 167.959 117.807 174.099C117.807 174.099 125.409 175.343 120.77 180.442L122.711 182.014Z" fill="#FFCDB2"/>
<path d="M108.172 164.737C110.05 164.726 111.615 166.219 112.195 168.953C112.436 168.898 112.651 168.897 112.892 168.895C114.234 168.887 117.136 169.434 117.834 174.099C117.834 174.099 125.436 175.343 120.796 180.442L122.738 181.987C122.738 181.987 120.665 185.461 116.613 185.485C115.62 185.491 114.626 185.309 113.711 184.938C107.768 182.746 102.941 178.883 102.322 174.003C101.703 169.122 104.074 166.129 106.617 165.068C107.099 164.85 107.635 164.74 108.172 164.737ZM108.167 163.932C107.523 163.935 106.88 164.073 106.264 164.345C103.614 165.461 100.788 168.698 101.491 174.142C101.801 176.662 103.13 178.989 105.45 181.096C107.474 182.962 110.247 184.556 113.421 185.718C114.443 186.115 115.517 186.296 116.618 186.317C121.072 186.29 123.331 182.574 123.411 182.439L123.757 181.847L123.217 181.394L121.923 180.355C122.988 178.953 123.329 177.663 122.92 176.484C122.238 174.529 119.71 173.712 118.528 173.424C117.587 168.599 114.31 168.082 112.888 168.09L112.807 168.091C112.067 165.492 110.314 163.919 108.167 163.932Z" fill="#1D1D1B"/>
<path d="M107.574 177.246C107.36 177.247 107.198 177.087 107.17 176.872C107.121 173.223 109.195 169.856 112.486 168.254C112.673 168.145 112.915 168.224 113.024 168.438C113.132 168.652 113.053 168.868 112.839 168.976C107.649 171.637 107.974 176.76 107.974 176.814C108.002 177.029 107.816 177.217 107.601 177.246L107.574 177.246Z" fill="#1D1D1B"/>
<path d="M112.771 180.167C112.717 180.167 112.663 180.141 112.61 180.141C112.421 180.062 112.312 179.821 112.419 179.606C112.498 179.417 114.671 174.762 117.883 173.321C118.07 173.212 118.312 173.318 118.421 173.505C118.529 173.693 118.423 173.935 118.236 174.043C118.236 174.043 118.236 174.043 118.209 174.043C115.265 175.376 113.172 179.896 113.145 179.95C113.065 180.085 112.905 180.166 112.771 180.167Z" fill="#1D1D1B"/>
<path d="M117.999 183.92C117.784 183.922 117.595 183.735 117.594 183.52C117.593 183.332 117.699 183.171 117.887 183.143C119.682 182.595 120.928 180.039 120.955 180.012C121.061 179.823 121.302 179.714 121.49 179.821C121.679 179.9 121.787 180.141 121.681 180.356C121.628 180.491 120.276 183.29 118.133 183.919C118.053 183.92 118.026 183.92 117.999 183.92Z" fill="#1D1D1B"/>
<path d="M104.244 176.809C104.083 176.81 103.948 176.73 103.894 176.597C103.813 176.463 102.266 173.493 103.24 170.294C103.845 168.305 105.311 166.659 107.586 165.465C107.773 165.356 108.015 165.435 108.123 165.623C108.232 165.81 108.153 166.052 107.965 166.16C105.878 167.246 104.545 168.73 103.992 170.504C103.097 173.381 104.562 176.163 104.589 176.19C104.698 176.377 104.619 176.619 104.431 176.728C104.378 176.782 104.325 176.809 104.244 176.809Z" fill="#DFDFDF"/>
<path d="M123.623 182.009C123.623 182.009 126.766 187.116 132.684 184.853C138.601 182.591 143.382 178.672 143.943 173.785C144.505 168.897 142.099 165.932 139.544 164.901C136.988 163.869 134.662 165.359 133.985 168.825C133.985 168.825 129.256 167.887 128.407 174.037C128.407 174.037 120.82 175.37 125.519 180.414L123.623 182.009Z" fill="#FFCDB2"/>
<path d="M137.958 164.561C138.495 164.558 139.032 164.662 139.544 164.901C142.099 165.959 144.505 168.924 143.943 173.785C143.382 178.645 138.601 182.591 132.684 184.853C131.773 185.208 130.782 185.401 129.789 185.434C125.737 185.458 123.623 182.008 123.623 182.008L125.546 180.441C120.847 175.396 128.434 174.064 128.434 174.064C129.077 169.39 131.945 168.81 133.314 168.802C133.555 168.8 133.77 168.826 134.012 168.851C134.506 166.111 136.08 164.572 137.958 164.561ZM137.954 163.756C135.807 163.769 134.072 165.362 133.363 167.97L133.282 167.97C131.86 167.979 128.589 168.535 127.705 173.37C126.526 173.672 124.009 174.519 123.349 176.482C122.954 177.665 123.31 178.951 124.392 180.34L123.11 181.394L122.576 181.854L122.928 182.442C123.01 182.602 125.339 186.265 129.767 186.239C130.867 186.233 131.939 186.012 132.957 185.603C136.116 184.404 138.844 182.778 140.872 180.887C143.141 178.754 144.469 176.411 144.749 173.887C145.361 168.436 142.498 165.232 139.834 164.148C139.243 163.91 138.598 163.753 137.954 163.756Z" fill="#1D1D1B"/>
<path d="M138.703 177.063C138.461 177.037 138.272 176.85 138.298 176.636C138.297 176.421 138.536 171.455 133.314 168.829C133.126 168.723 133.044 168.482 133.123 168.293C133.229 168.105 133.47 168.023 133.659 168.102C136.969 169.666 139.082 173.008 139.076 176.658C139.078 176.899 138.918 177.061 138.703 177.063Z" fill="#1D1D1B"/>
<path d="M133.541 180.045C133.38 180.046 133.245 179.966 133.164 179.806C133.137 179.752 130.99 175.256 128.031 173.959C127.816 173.879 127.734 173.638 127.813 173.423C127.892 173.208 128.133 173.126 128.348 173.205C131.577 174.636 133.778 179.238 133.886 179.426C133.995 179.613 133.889 179.855 133.702 179.963C133.648 180.044 133.595 180.045 133.541 180.045Z" fill="#1D1D1B"/>
<path d="M128.357 183.859C128.33 183.86 128.277 183.86 128.25 183.833C126.099 183.229 124.714 180.419 124.66 180.312C124.578 180.098 124.684 179.882 124.872 179.801C125.059 179.719 125.274 179.798 125.383 179.986C125.383 180.012 126.659 182.581 128.487 183.08C128.702 183.133 128.837 183.373 128.758 183.589C128.706 183.75 128.545 183.858 128.357 183.859Z" fill="#1D1D1B"/>
<path d="M142.028 176.587C141.974 176.587 141.893 176.561 141.839 176.534C141.651 176.428 141.569 176.187 141.675 175.998C141.675 175.972 143.108 173.172 142.205 170.306C141.631 168.538 140.281 167.097 138.182 166.009C137.993 165.903 137.911 165.662 138.044 165.446C138.15 165.258 138.365 165.203 138.553 165.282C140.841 166.45 142.326 168.051 142.955 170.06C143.967 173.248 142.455 176.235 142.375 176.37C142.296 176.505 142.162 176.586 142.028 176.587Z" fill="#DFDFDF"/>
<path d="M95.0952 172.623C95.94 172.618 96.6208 171.929 96.6158 171.084C96.6108 170.24 95.922 169.559 95.0772 169.564C94.2324 169.569 93.5516 170.258 93.5566 171.102C93.5616 171.947 94.2504 172.628 95.0952 172.623Z" fill="#FFC140"/>
<path d="M81.3915 187.893C82.2362 187.888 82.917 187.199 82.9121 186.354C82.9071 185.509 82.2182 184.828 81.3735 184.833C80.5287 184.838 79.8479 185.527 79.8529 186.372C79.8578 187.217 80.5467 187.898 81.3915 187.893Z" fill="#FFC140"/>
<path d="M86.0228 213.359C86.8675 213.354 87.5483 212.666 87.5434 211.821C87.5384 210.976 86.8495 210.295 86.0048 210.3C85.16 210.305 84.4792 210.994 84.4842 211.839C84.4892 212.684 85.178 213.364 86.0228 213.359Z" fill="#FFC140"/>
<path d="M101.899 216.03C102.743 216.025 103.424 215.336 103.419 214.492C103.414 213.647 102.725 212.966 101.881 212.971C101.036 212.976 100.355 213.665 100.36 214.51C100.365 215.354 101.054 216.035 101.899 216.03Z" fill="#FFC140"/>
<path d="M99.0069 194.337C99.8516 194.332 100.532 193.643 100.527 192.798C100.522 191.954 99.8336 191.273 98.9889 191.278C98.1441 191.283 97.4633 191.972 97.4683 192.816C97.4733 193.661 98.1621 194.342 99.0069 194.337Z" fill="#FFC140"/>
<path d="M131.823 202.758C132.668 202.753 133.349 202.064 133.344 201.22C133.339 200.375 132.65 199.694 131.805 199.699C130.96 199.704 130.279 200.393 130.284 201.238C130.289 202.082 130.978 202.763 131.823 202.758Z" fill="#FFC140"/>
<path d="M148.692 200.941C149.537 200.936 150.218 200.248 150.213 199.403C150.208 198.558 149.519 197.877 148.674 197.882C147.829 197.887 147.149 198.576 147.154 199.421C147.158 200.266 147.847 200.946 148.692 200.941Z" fill="#FFC140"/>
<path d="M162.236 217.742C163.08 217.737 163.761 217.048 163.756 216.203C163.751 215.358 163.062 214.677 162.218 214.682C161.373 214.687 160.692 215.376 160.697 216.221C160.702 217.066 161.391 217.747 162.236 217.742Z" fill="#FFC140"/>
<path d="M161.721 189.486C162.565 189.481 163.246 188.792 163.241 187.948C163.236 187.103 162.547 186.422 161.703 186.427C160.858 186.432 160.177 187.121 160.182 187.966C160.187 188.81 160.876 189.491 161.721 189.486Z" fill="#FFC140"/>
<path d="M85.0896 223.509C85.0091 223.509 84.9285 223.483 84.8478 223.457C77.5324 220.736 73.2579 214.884 72.5111 206.542C72.1927 202.599 72.5449 198.599 73.5959 194.782C73.7012 194.432 74.1026 194.242 74.4521 194.347C74.8016 194.453 74.9916 194.827 74.8862 195.15C73.9149 198.832 73.5616 202.645 73.8524 206.454C74.5697 214.339 78.4384 219.63 85.3234 222.193C85.6731 222.325 85.8363 222.699 85.7042 223.049C85.5986 223.345 85.358 223.507 85.0896 223.509Z" fill="#DFDFDF"/>
<path d="M158.707 224.632C158.331 224.661 158.008 224.395 157.979 224.019C157.95 223.644 158.216 223.32 158.592 223.291C163.578 222.349 167.214 220.074 169.42 216.519C173.78 209.462 171.066 199.656 171.038 199.576C170.956 199.227 171.168 198.85 171.543 198.768C171.892 198.685 172.242 198.871 172.351 199.219C172.461 199.648 175.257 209.695 170.605 217.236C168.213 221.115 164.256 223.607 158.895 224.604C158.787 224.632 158.761 224.632 158.707 224.632Z" fill="#DFDFDF"/>
<path d="M40.831 213.33C40.8032 213.169 36.6329 197.656 34.9784 176.439C33.9926 163.966 34.0832 151.996 35.1984 140.853C36.5924 126.917 39.6308 114.232 44.2082 103.149C48.5738 92.5501 57.515 84.2589 70.7647 78.4649C82.6224 73.2695 97.3654 70.4187 113.466 70.2166L114.459 70.2108C132.76 70.1031 151.189 73.4297 166.468 79.5658C183.388 86.363 195.011 96.0093 200.069 107.385C204.556 117.475 207.524 129.239 208.916 142.407C210.025 152.92 210.119 164.352 209.196 176.353C207.626 196.784 203.637 212.024 203.584 212.185L202.804 211.975C202.857 211.814 206.847 196.628 208.391 176.277C209.81 157.511 209.409 130.382 199.347 107.738C194.37 96.5498 182.909 87.0636 166.177 80.3457C150.71 74.1303 131.986 70.8054 113.471 71.0485C97.4776 71.2499 82.815 74.0735 71.0911 79.2144C58.0288 84.9268 49.2478 93.0829 44.9346 103.467C34.6152 128.378 34.246 156.853 35.7831 176.38C37.4373 197.544 41.5803 212.977 41.6349 213.138L40.831 213.33Z" fill="black"/>
<path d="M199.18 79.3465C195.318 70.7549 158.251 64.9617 113.308 66.1922C78.4537 67.1486 48.5875 72.0743 35.3137 78.3246C34.2395 78.1967 33.1658 78.1494 32.0926 78.1825C19.8574 78.5229 10.173 88.2139 10.5099 99.8587C10.8467 111.503 21.0176 120.648 33.2528 120.308C41.9462 120.069 49.3506 115.114 52.7711 108.09C56.5951 114.911 64.2432 119.455 72.9366 119.216C82.5691 118.944 90.5842 112.886 93.4341 104.658C96.7287 112.716 105.054 118.329 114.686 118.058C123.541 117.818 131.051 112.648 134.417 105.436C137.446 113.952 146.042 119.993 156.023 119.693C164.878 119.453 172.388 114.283 175.754 107.072C178.783 115.588 187.379 121.602 197.36 121.328C209.595 120.988 219.253 111.297 218.943 99.6523C218.639 89.0271 210.055 80.4365 199.18 79.3465Z" fill="#EA6C56"/>
<path d="M196.826 121.761C192.157 121.815 187.587 120.447 183.707 117.84C180.124 115.445 177.34 112.054 175.679 108.092C171.991 115.198 164.37 119.885 156.026 120.122C151.196 120.285 146.412 118.918 142.397 116.204C138.814 113.81 136.03 110.418 134.396 106.456C130.708 113.562 123.087 118.25 114.743 118.487C105.593 118.755 97.1636 113.652 93.4943 105.757C90.2411 113.854 82.1423 119.376 72.966 119.645C64.6214 119.882 56.9492 115.794 52.803 108.949C49.0338 116.002 41.6267 120.5 33.2553 120.737L32.7723 120.74C20.5624 120.812 10.4445 111.559 10.1343 99.8876C9.82322 88.0548 19.6674 78.1481 32.1172 77.8065C33.1636 77.7735 34.2105 77.821 35.2577 77.9222C49.0134 71.4812 79.6051 66.7123 113.279 65.7897C158.087 64.56 194.94 70.2202 199.446 78.9691C210.509 80.1921 219.042 89.0514 219.346 99.6767C219.487 105.446 217.265 110.987 213.156 115.036C208.968 119.221 203.319 121.615 197.39 121.758L196.826 121.761ZM175.801 106.025L176.129 106.962C179.186 115.612 187.726 121.224 197.331 120.953C203.047 120.839 208.507 118.526 212.563 114.476C216.564 110.454 218.68 105.209 218.514 99.7084C218.239 89.405 209.896 80.8398 199.128 79.7492L198.887 79.7238L198.805 79.5096C194.998 71.0518 157.448 65.3956 113.31 66.5945C79.6635 67.517 49.1254 72.2588 35.5038 78.699L35.3968 78.7533L35.2894 78.754C34.2422 78.6528 33.1954 78.6053 32.1221 78.6384C20.1285 78.9773 10.6041 88.5064 10.9394 99.8829C11.2469 111.098 20.987 120.004 32.7676 119.935L33.2774 119.932C41.5952 119.695 48.9481 115.117 52.4482 107.931L52.7929 107.231L53.1725 107.9C57.0778 114.854 64.6702 119.05 72.9611 118.813C82.1376 118.571 90.2351 112.834 93.0845 104.525L93.4273 103.504L93.8357 104.494C97.1306 112.606 105.535 117.897 114.711 117.655C123.109 117.418 130.702 112.569 134.067 105.25L134.491 104.362L134.819 105.3C137.875 113.95 146.415 119.562 156.021 119.29C164.392 119.053 172.012 114.205 175.377 106.886L175.801 106.025Z" fill="#1D1D1B"/>
<path d="M38.8522 41.1898C38.8522 41.1898 127.22 31.5458 193.824 40.2782L193.91 54.8495L214.143 86.6384C214.143 86.6384 114.202 67.6361 13.5788 87.8182L40.5227 55.9934L38.8522 41.1898Z" fill="#EA6C56"/>
<path d="M12.5358 88.4415L40.0925 55.8616L38.3938 40.8167L38.7962 40.7875C39.0107 40.7594 61.2435 38.3476 91.3188 37.0436C119.087 35.8336 159.418 35.3548 193.849 39.8754L194.198 39.927L194.285 54.7399L214.979 87.2238L214.065 87.0413C213.823 86.989 188.677 82.2528 151.55 80.056C117.322 78.03 65.5814 77.7976 13.6616 88.2202L12.5358 88.4415ZM110.319 78.1517C123.897 78.0718 137.72 78.4467 151.626 79.2773C184.834 81.2557 208.473 85.2494 213.308 86.1065L193.508 54.986L193.424 40.6293C159.128 36.1616 119.011 36.666 91.3772 37.8483C63.5287 39.0587 42.4214 41.1956 39.2836 41.536L40.9526 56.0981L40.846 56.2329L14.6485 87.1946C37.2985 82.714 61.756 79.8597 87.3507 78.7162C94.9164 78.3765 102.564 78.1973 110.319 78.1517Z" fill="#1D1D1B"/>
<path d="M62.0507 52.4047L52.402 81.8467C67.1252 80.2036 81.5305 79.2601 95.3216 78.8301L93.3524 49.7248L92.6091 37.4115C80.9652 37.9094 70.5031 38.5613 61.9729 39.1751L62.0507 52.4047Z" fill="#DFDFDF"/>
<path d="M51.8412 82.3063L61.6746 52.3265L61.5951 38.8017L61.9706 38.7726C72.1638 38.0149 82.4652 37.4176 92.6068 37.0091L93.0091 36.9799L93.7548 49.6957L95.7533 79.2034L95.3239 79.2059C80.6742 79.6678 66.2424 80.6651 52.4579 82.2222L51.8412 82.3063ZM62.3777 39.5485L62.4536 52.4561L62.4271 52.5099L52.9627 81.3605C66.4523 79.8588 80.5623 78.8902 94.8631 78.4304L92.9233 49.7543L92.209 37.8165C82.3359 38.2503 72.3027 38.8192 62.3777 39.5485Z" fill="#1D1E1B"/>
<path d="M173.791 51.7474L173.739 38.2225C162.409 37.3499 150.786 36.8815 139.326 36.7074L137.938 79.0089C154.473 79.6362 169.132 80.8381 181.082 82.1096L173.791 51.7474Z" fill="#DFDFDF"/>
<path d="M181.621 82.5627L181.057 82.5124C166.879 81.0124 152.381 79.9706 137.94 79.4115L137.538 79.387L138.948 36.2803L139.35 36.278C151.562 36.4476 163.158 36.9698 173.79 37.7929L174.166 37.8175L174.22 51.6645L181.621 82.5627ZM138.392 78.6038C152.538 79.1646 166.713 80.1815 180.596 81.6295L173.416 51.7765L173.416 51.7229L173.365 38.5736C162.975 37.776 151.674 37.2789 139.758 37.1075L138.392 78.6038Z" fill="#1D1E1B"/>
<path d="M40.3894 56.1551L40.2238 55.3778C40.4115 55.3499 60.2747 51.5833 89.0044 49.6163C115.534 47.7964 155.275 47.1601 193.961 54.4734L193.805 55.2526C155.199 47.9656 115.539 48.6015 89.0358 50.3944C60.3868 52.3877 40.5771 56.1271 40.3894 56.1551Z" fill="#1D1D1B"/>
<path d="M5.74665 111.292C5.61248 111.293 5.47783 111.213 5.39669 111.106C0.0877903 102.764 0.957401 95.4868 2.62101 90.888C3.70356 87.8761 5.37806 85.129 7.56479 82.7814C7.72486 82.6194 7.96637 82.618 8.12833 82.7781C8.29028 82.9381 8.2917 83.1796 8.13164 83.3416C8.13164 83.3416 8.13164 83.3416 8.10497 83.3686C5.99826 85.6352 4.37696 88.3015 3.34745 91.2058C1.02386 97.6601 1.94808 104.229 6.0652 110.699C6.17364 110.887 6.12139 111.129 5.93434 111.264C5.90766 111.291 5.82716 111.291 5.74665 111.292Z" fill="#1D1D1B"/>
<path d="M224.422 114.192C224.342 114.192 224.288 114.166 224.234 114.139C224.046 114.033 223.964 113.792 224.07 113.604C230.044 102.727 228.728 93.4762 226.574 87.6387C224.229 81.2924 220.423 77.4772 220.396 77.4505C220.234 77.2905 220.232 77.049 220.392 76.887C220.552 76.7251 220.794 76.7236 220.956 76.8837C221.118 77.0438 224.924 80.8321 227.324 87.3391C229.56 93.3371 230.904 102.829 224.797 114.002C224.717 114.11 224.583 114.191 224.422 114.192Z" fill="#1D1D1B"/>
<path d="M31.3855 117.662C31.305 117.663 31.2245 117.663 31.1707 117.637C23.3455 114.919 18.1963 110.923 15.8044 105.758C14.1466 102.226 13.9081 98.1748 15.1207 94.4643C15.2528 94.1146 15.6546 93.9781 16.0042 94.1102C16.327 94.2425 16.4903 94.6172 16.3848 94.9399C15.3313 98.3274 15.5408 102.003 17.0356 105.214C19.2645 110.032 24.1707 113.787 31.6195 116.373C31.9691 116.505 32.1592 116.879 32.0271 117.229C31.9213 117.498 31.6539 117.661 31.3855 117.662Z" fill="#DFDFDF"/>
<path d="M152.384 116.951C152.331 116.951 152.277 116.951 152.223 116.925C143.596 114.775 139.379 109.594 137.37 105.634C136.04 103.092 135.273 100.306 135.041 97.4356C135.039 97.0599 135.332 96.7629 135.681 96.7609L135.708 96.7607C136.084 96.7585 136.38 97.052 136.383 97.4008C136.586 100.083 137.353 102.682 138.575 105.09C141.317 110.468 146.007 114.009 152.538 115.635C152.887 115.713 153.104 116.088 153.025 116.437C152.92 116.733 152.653 116.949 152.384 116.951Z" fill="#DFDFDF"/>
<path d="M175.225 76.4818C174.93 76.4835 174.634 76.2706 174.578 75.9757L169.632 56.3609C169.55 56.0125 169.762 55.6356 170.111 55.553C170.459 55.4705 170.836 55.6829 170.918 56.0313L175.864 75.6461C175.947 75.9945 175.734 76.3714 175.386 76.454C175.332 76.4543 175.279 76.4814 175.225 76.4818Z" fill="#DFDFDF"/>
<path d="M90.7431 71.4506C90.3674 71.4528 90.0705 71.1593 90.0682 70.7836L89.9852 56.6685C89.983 56.2928 90.2764 55.9959 90.6521 55.9936C91.0278 55.9914 91.3247 56.2849 91.327 56.6606L91.4101 70.8026C91.4122 71.1514 91.1187 71.4484 90.7431 71.4506Z" fill="#DFDFDF"/>
<path d="M48.691 203.73C48.5032 203.731 48.3684 203.625 48.3136 203.437C43.059 186.079 42.3605 167.7 42.6903 155.327C43.0408 141.934 44.6492 132.505 44.6756 132.424C44.7011 132.209 44.9149 132.047 45.1567 132.099C45.3715 132.125 45.5338 132.339 45.4816 132.58C45.4033 132.957 39.1282 170.215 49.1174 203.218C49.1723 203.432 49.0663 203.648 48.8521 203.729C48.7984 203.73 48.7447 203.73 48.691 203.73Z" fill="#1D1D1B"/>
<path d="M198.429 202.581C198.402 202.581 198.375 202.581 198.321 202.582C198.106 202.529 197.971 202.315 198.023 202.1C202.609 183.288 202.264 165.713 201.15 154.314C199.95 141.95 197.649 133.966 197.622 133.886C197.567 133.672 197.7 133.456 197.914 133.401C198.102 133.346 198.317 133.479 198.372 133.667C198.399 133.747 200.728 141.811 201.928 154.256C203.042 165.735 203.387 183.364 198.776 202.311C198.777 202.472 198.616 202.58 198.429 202.581Z" fill="#1D1D1B"/>
<path d="M150.436 36.6957C150.371 25.5324 162.367 16.445 177.206 16.3577C192.046 16.2704 204.148 25.2429 204.214 36.3794C204.279 47.5159 192.283 56.6301 177.444 56.7174C175.619 56.7282 173.82 56.6046 172.021 56.3468L165.964 62.2863L164.495 54.2979C156.156 50.9388 150.481 44.3168 150.436 36.6957Z" fill="#426C89"/>
<path d="M165.7 63.1198L164.121 54.5953C155.458 50.9965 150.078 44.1582 150.034 36.6981C149.967 25.3469 162.149 16.0437 177.204 15.9551C192.258 15.8666 204.549 25.0258 204.616 36.377C204.683 47.7282 192.5 57.0314 177.446 57.12C175.675 57.1304 173.903 57.0066 172.157 56.7754L165.7 63.1198ZM177.209 16.7602C162.61 16.8461 150.775 25.7984 150.839 36.6934C150.881 43.8851 156.153 50.4826 164.627 53.9214L164.842 54.0006L166.227 61.4529L171.884 55.8914L172.072 55.9171C173.844 56.175 175.643 56.2986 177.441 56.2881C192.039 56.2022 203.875 47.2499 203.811 36.3549C203.747 25.4599 191.807 16.6743 177.209 16.7602Z" fill="#1D1E1B"/>
<path d="M159.026 46.2524C158.433 45.6655 157.919 45.0513 157.459 44.3563C156.999 43.6881 156.592 42.9927 156.239 42.2434L156.103 41.949L156.022 41.8153C156.049 41.8956 156.022 41.8153 156.021 41.7885C155.94 41.6011 155.858 41.3869 155.776 41.1995C155.64 40.8246 155.503 40.4229 155.394 40.021C155.284 39.6191 155.201 39.217 155.118 38.8418C155.091 38.7615 155.091 38.681 155.063 38.5738C155.036 38.4666 155.036 38.4666 155.035 38.4129C155.035 38.4129 155.007 38.2253 155.035 38.3324C155.007 38.1179 154.979 37.9302 154.978 37.7155C154.892 36.911 154.915 36.1058 154.99 35.3002C154.99 35.2197 155.016 35.1122 155.016 35.0317C155.015 35.0049 155.015 34.9512 155.015 34.8976C154.989 35.0051 155.014 34.8439 155.014 34.8439C155.04 34.6559 155.066 34.4411 155.118 34.2529C155.197 33.8767 155.275 33.5006 155.38 33.1511C155.485 32.8016 155.591 32.4253 155.723 32.0488C155.749 31.9413 155.802 31.8605 155.828 31.753L155.881 31.6453C155.881 31.6185 155.934 31.5108 155.881 31.6185C155.96 31.4302 156.04 31.2418 156.119 31.0535C156.464 30.3538 156.836 29.6539 157.288 29.0071C157.767 28.2797 158.326 27.6056 158.94 27.0116C159.26 26.6876 159.58 26.3637 159.927 26.0665C160.301 25.7423 160.568 25.5528 160.969 25.2553C161.21 25.0929 161.315 24.7702 161.153 24.5296C160.99 24.2622 160.668 24.1836 160.427 24.3461C157.675 26.3213 155.598 29.0976 154.517 32.3242C153.489 35.5238 153.67 39.0114 154.977 42.1166C155.739 43.937 156.876 45.621 158.253 47.0083C158.469 47.2217 158.791 47.2199 159.004 47.0039C159.244 46.7878 159.242 46.4658 159.026 46.2524Z" fill="#DFDFDF"/>
<path d="M158.658 47.4354C158.443 47.4367 158.228 47.3575 158.066 47.1974C156.635 45.7567 155.525 44.0725 154.736 42.1987C153.375 39.04 153.22 35.4986 154.274 32.2184C155.382 28.9379 157.485 26.1078 160.291 24.1054C160.452 23.9972 160.639 23.9424 160.854 23.9948C161.096 24.047 161.285 24.1801 161.42 24.3672C161.637 24.7416 161.533 25.2252 161.158 25.469C160.757 25.7665 160.517 25.9558 160.143 26.28C159.769 26.6042 159.476 26.8743 159.183 27.1981C158.596 27.7919 158.063 28.466 157.584 29.1665C157.158 29.8131 156.76 30.4863 156.442 31.1591C156.362 31.3206 156.283 31.5089 156.203 31.6704C156.203 31.6704 156.203 31.6704 156.203 31.6972L156.151 31.8585C156.124 31.9392 156.071 32.0468 156.045 32.1275C155.913 32.4772 155.808 32.8266 155.702 33.203C155.597 33.5793 155.519 33.9286 155.441 34.3048C155.415 34.4928 155.362 34.6809 155.337 34.8958L155.337 34.9226L155.337 34.9494L155.338 35.0568C155.338 35.1373 155.312 35.2448 155.312 35.3253C155.236 36.104 155.241 36.909 155.299 37.6869C155.327 37.8746 155.328 38.0625 155.356 38.2501C155.357 38.277 155.357 38.3038 155.357 38.3575L155.385 38.4915C155.385 38.572 155.412 38.6524 155.44 38.7595C155.523 39.1616 155.605 39.5368 155.715 39.9387C155.825 40.3406 155.934 40.7156 156.071 41.0905C156.152 41.2779 156.234 41.4921 156.316 41.6795L156.397 41.84C156.452 41.9471 156.479 42.0274 156.533 42.1344C156.886 42.8569 157.266 43.5524 157.726 44.2206C158.186 44.8888 158.7 45.503 159.267 46.0632C159.564 46.3835 159.567 46.8665 159.273 47.1903C159.086 47.3524 158.899 47.434 158.658 47.4354ZM160.67 24.5326C160.643 24.5327 160.616 24.5329 160.589 24.5599C157.863 26.4813 155.84 29.2304 154.785 32.4033C153.784 35.549 153.938 38.9562 155.244 42.0078C156.006 43.8013 157.089 45.432 158.466 46.8193C158.52 46.8727 158.601 46.899 158.654 46.8987C158.708 46.8984 158.788 46.8711 158.815 46.8173C158.922 46.7093 158.921 46.5483 158.813 46.4416C158.219 45.8547 157.678 45.2138 157.191 44.5189C156.731 43.8508 156.298 43.1287 155.944 42.3794C155.917 42.3259 155.89 42.2724 155.863 42.192L155.754 41.9243L155.754 41.8975C155.672 41.6833 155.59 41.4959 155.508 41.2817C155.372 40.88 155.235 40.5051 155.126 40.1032C155.016 39.7013 154.933 39.2992 154.85 38.8972C154.823 38.8168 154.822 38.7095 154.795 38.6291L154.767 38.3878C154.739 38.1733 154.711 37.9856 154.683 37.7711C154.597 36.9665 154.619 36.1344 154.695 35.3021C154.694 35.1947 154.721 35.1141 154.72 35.0336L154.746 34.9261L154.746 34.8456C154.772 34.6307 154.797 34.4427 154.85 34.2277C154.928 33.8516 155.006 33.4754 155.111 33.0991C155.217 32.7228 155.322 32.3465 155.481 31.9967L155.586 31.7008L155.639 31.5395C155.718 31.3512 155.798 31.1629 155.904 30.9744C156.249 30.2478 156.647 29.5477 157.099 28.901C157.605 28.1735 158.165 27.4993 158.778 26.8516C159.098 26.5277 159.445 26.2036 159.792 25.9064C160.139 25.6091 160.433 25.3659 160.834 25.0683C160.941 24.9872 161.047 24.8256 160.966 24.6919C160.912 24.6117 160.831 24.5585 160.75 24.559L160.67 24.5326Z" fill="#DFDFDF"/>
<path d="M186.328 25.0255C186.113 25.0268 185.924 24.8669 185.923 24.6254C185.921 24.3839 186.082 24.2219 186.323 24.2205C197.536 23.4031 206.569 17.1241 212.148 11.9924C215.778 8.69711 219.003 4.97479 221.743 0.906453C221.85 0.717977 222.118 0.662728 222.306 0.768963C222.495 0.875198 222.55 1.14323 222.444 1.33171C219.65 5.45403 216.398 9.23018 212.715 12.5795C207.029 17.7923 197.809 24.2066 186.381 25.0252L186.328 25.0255Z" fill="black"/>
<path d="M199.824 33.7485C199.153 33.7525 198.482 33.7296 197.784 33.6532C197.569 33.6276 197.407 33.4407 197.406 33.226C197.431 33.0112 197.618 32.8491 197.833 32.8478C210.64 34.0069 217.282 22.6431 217.362 22.5353C217.468 22.3468 217.709 22.238 217.898 22.3443C218.086 22.4505 218.168 22.6916 218.089 22.8799C218.089 22.9067 218.062 22.9069 218.062 22.9337C218.036 23.0412 211.846 33.6778 199.824 33.7485Z" fill="black"/>
</svg>
